<svg width="252" height="46" viewBox="0 0 252 46" fill="none" xmlns="http://www.w3.org/2000/svg">
<path fill-rule="evenodd" clip-rule="evenodd" d="M30.2892 1.38471C30.0921 1.3353 29.8543 1.3353 29.657 1.38471L16.7421 5.32513L16.7353 5.32738C16.1304 5.52944 15.8342 6.13876 15.9814 6.72871L15.9848 6.74223L15.9896 6.75536C16.187 7.29958 16.7876 7.66428 17.4036 7.46068L29.992 3.62612L42.8503 7.57637C43.4723 7.78207 44.0732 7.40916 44.2673 6.82568C44.4741 6.20379 44.1038 5.59984 43.5191 5.40447L30.3022 1.38796L30.2892 1.38471ZM10.7208 8.14891C10.6612 7.69045 10.9082 7.24119 11.2899 7.01171L11.3031 7.00377L11.3171 6.99739C11.4445 6.93933 11.5776 6.90555 11.7106 6.89478C11.8204 6.87927 11.935 6.88016 12.0514 6.8996C12.5208 6.97801 12.872 7.33151 12.9603 7.77041L20.3486 22.2189H39.9287C39.9686 22.2189 40.0079 22.221 40.0468 22.2252L47.0207 7.79364C47.0751 7.49699 47.252 7.23827 47.5142 7.08357C47.8326 6.86352 48.2604 6.82942 48.6292 6.99739C48.998 7.16541 49.2079 7.50085 49.2469 7.86262L49.475 9.19646C49.5272 9.42989 49.7498 10.985 49.7498 13.3408C49.7498 15.6742 49.5171 18.7454 48.6636 22.2052C47.8488 25.4715 46.3736 29.4023 43.6936 33.2558C41.0136 37.1092 37.1314 40.9209 31.5467 43.914L31.545 43.9149L30.5117 44.4902L30.5102 44.4912C30.1584 44.692 29.7878 44.692 29.4359 44.4912L29.4344 44.4902L28.4012 43.9149L28.3993 43.914C22.8147 40.9209 18.9325 37.1092 16.2526 33.2558C13.5735 29.4036 12.0974 25.4732 11.3589 22.1638C10.5061 18.7049 10.2734 15.5962 10.2734 13.3022C10.2734 10.9464 10.496 9.39132 10.5482 9.15787L10.7208 8.14891ZM21.4925 24.456H38.8592L29.9973 41.0876L21.4925 24.456ZM12.5402 11.8433C12.5206 12.2796 12.5078 12.7684 12.5078 13.3022C12.5078 15.4484 12.6991 18.3974 13.5012 21.6125C14.2652 24.7135 15.6401 28.3492 18.1212 31.9454C20.2374 34.9794 23.1599 38.0156 27.2471 40.6019L12.5402 11.8433ZM32.7958 40.5591C36.832 37.9894 39.7604 34.9932 41.8632 31.9457C44.3442 28.3501 45.7192 24.6763 46.4834 21.6125C47.2855 18.3974 47.4769 15.4484 47.4769 13.3022C47.4769 12.8258 47.4667 12.3853 47.4507 11.9859L42.0472 23.1672V23.2115L32.7958 40.5591Z" fill="white"/>
<path fill-rule="evenodd" clip-rule="evenodd" d="M29.7722 2.16674L17.1106 6.02982L17.109 6.03037C16.7293 6.15719 16.5339 6.53495 16.6279 6.92506C16.7599 7.27891 17.1412 7.4912 17.5129 7.36835L17.5174 7.3669L29.9957 3.56591L42.7383 7.48061L42.7423 7.48197C43.1131 7.60461 43.4973 7.39357 43.6288 6.99775C43.7527 6.62528 43.5428 6.24092 43.1512 6.10762L30.1927 2.16966L30.1895 2.16887C30.0627 2.13707 29.9007 2.13637 29.7722 2.16674ZM30.3839 1.39602L30.4062 1.40162L43.3946 5.34868L43.3998 5.3504C44.1535 5.60214 44.668 6.40191 44.3863 7.24884C44.1375 7.9972 43.3441 8.51775 42.4956 8.23979L29.9945 4.3993L17.759 8.1264C16.9251 8.39902 16.1324 7.89926 15.8749 7.18994L15.8632 7.15767L15.8549 7.12436C15.664 6.35868 16.05 5.54388 16.8557 5.27472L16.8672 5.27085L29.5594 1.39847L29.5692 1.39602C29.8265 1.33154 30.1266 1.33154 30.3839 1.39602ZM12.006 6.79499C12.1505 6.7758 12.2999 6.77774 12.4504 6.8029C13.0558 6.904 13.518 7.35034 13.6552 7.91447L20.7735 21.8348H39.6172L46.3293 7.94485C46.4136 7.57087 46.6438 7.24326 46.9793 7.04076C47.4115 6.74852 47.9754 6.71097 48.4549 6.92937C48.9527 7.15612 49.2354 7.6089 49.291 8.08541L49.5114 9.37466C49.5747 9.67231 49.7883 11.2204 49.7883 13.5185C49.7883 15.8351 49.5572 18.8824 48.7107 22.315C47.9018 25.5573 46.4363 29.4637 43.7723 33.2944C41.108 37.1252 37.2511 40.9102 31.7109 43.8797L31.7081 43.8813L30.7037 44.4403L30.7023 44.4412C30.2342 44.7084 29.7192 44.7087 29.2512 44.4415L29.2493 44.4405L28.2447 43.8811L28.2429 43.8801C22.7028 40.9108 18.8449 37.1252 16.1806 33.2944C13.5187 29.4667 12.0512 25.5612 11.3162 22.27C10.4709 18.8399 10.2402 15.7573 10.2402 13.4806C10.2402 11.1827 10.4539 9.63456 10.5171 9.33682L10.6758 8.4093C10.6249 7.81117 10.9516 7.25299 11.4311 6.96462L11.4636 6.94508L11.4981 6.92937C11.6619 6.85476 11.8336 6.8103 12.006 6.79499ZM12.3187 7.58879C12.2448 7.57644 12.1734 7.57607 12.1059 7.5856L12.0942 7.58727L12.0824 7.58822C12 7.5949 11.9169 7.61543 11.8365 7.65114C11.5878 7.8041 11.4384 8.09535 11.4742 8.37091L11.482 8.43026L11.3008 9.48953L11.2986 9.49934C11.2561 9.6893 11.0384 11.1839 11.0384 13.4806C11.0384 15.7066 11.2643 18.7255 12.0924 22.0839L12.0934 22.088L12.0944 22.0924C12.8096 25.2974 14.2398 29.1062 16.8363 32.8398C19.4332 36.5739 23.1975 40.2716 28.6205 43.178L28.6278 43.1821L29.6459 43.749L29.6474 43.7497C29.8698 43.8768 30.0831 43.8768 30.3056 43.7497L30.3109 43.7467L31.3307 43.1789L31.3324 43.178C36.7555 40.2716 40.5198 36.5739 43.1167 32.8398C45.7139 29.1052 47.1448 25.2938 47.9358 22.1234C48.7642 18.7644 48.99 15.7826 48.99 13.5185C48.99 11.2218 48.7724 9.72716 48.73 9.53724L48.7278 9.5274L48.5 8.19601L48.4988 8.1837C48.4741 7.95477 48.3452 7.7553 48.1236 7.65428C47.8835 7.54495 47.6135 7.57163 47.4219 7.70401L47.41 7.71217L47.3978 7.71945C47.2421 7.81119 47.136 7.96487 47.103 8.14512L47.0933 8.19806L40.1018 22.6656L39.822 22.6355C39.7979 22.6329 39.7737 22.6316 39.7488 22.6316H20.2848L12.8963 8.18287L12.8854 8.12905C12.831 7.85864 12.6145 7.6382 12.3187 7.58879ZM12.5331 10.5247L28.3198 41.3945L27.087 40.6144C23.0268 38.0452 20.1205 35.0267 18.0152 32.0084L18.014 32.0067C15.5462 28.4299 14.1794 24.8146 13.4202 21.7336C12.6231 18.5379 12.4335 15.6097 12.4335 13.4806C12.4335 12.9503 12.4462 12.4645 12.4657 12.0308L12.5331 10.5247ZM47.4671 10.5792L47.5312 12.1726C47.5471 12.5695 47.5572 13.0073 47.5572 13.4806C47.5572 15.6098 47.3676 18.5384 46.5704 21.7343C45.8112 24.7772 44.4447 28.4299 41.9764 32.0071C39.8827 35.0414 36.9699 38.0201 32.962 40.5717L31.6812 41.3872L41.4293 23.1081V23.0732L47.4671 10.5792ZM13.2321 13.6439C13.2417 15.713 13.4377 18.5062 14.195 21.5417C14.9356 24.5482 16.2682 28.0712 18.671 31.5538C20.4954 34.1697 22.9394 36.7884 26.2508 39.1013L13.2321 13.6439ZM42.2276 23.2552V23.3071L33.8483 39.0192C37.0937 36.7349 39.5199 34.1626 41.319 31.5551C43.7215 28.0732 45.0545 24.5135 45.7958 21.5417C46.5243 18.6215 46.7332 15.9255 46.7567 13.8829L42.2276 23.2552ZM21.0002 24.0307H39.3636L29.993 41.6166L21.0002 24.0307ZM22.3038 24.8276L30.0075 39.8926L38.0348 24.8276H22.3038Z" fill="white"/>
<path d="M30.2867 1.78244L30.3839 1.39602M30.3839 1.39602C30.1266 1.33154 29.8265 1.33154 29.5692 1.39602L29.5594 1.39847L16.8672 5.27085L16.8557 5.27472C16.05 5.54388 15.664 6.35868 15.8549 7.12436L15.8632 7.15767L15.8749 7.18994C16.1324 7.89926 16.9251 8.39903 17.759 8.1264L29.9945 4.3993L42.4956 8.23979C43.3441 8.51775 44.1375 7.9972 44.3863 7.24884C44.668 6.40191 44.1535 5.60214 43.3998 5.3504L43.3946 5.34868L30.4062 1.40162L30.3839 1.39602ZM11.4981 6.92937L11.6638 7.29182M11.4981 6.92937C11.6619 6.85476 11.8336 6.8103 12.006 6.79499C12.1505 6.7758 12.2999 6.77774 12.4504 6.8029C13.0558 6.904 13.518 7.35034 13.6552 7.91447L20.7735 21.8348H39.6172L46.3293 7.94485C46.4136 7.57087 46.6438 7.24326 46.9793 7.04076C47.4115 6.74852 47.9754 6.71097 48.4549 6.92937C48.9527 7.15612 49.2354 7.6089 49.291 8.08541L49.5114 9.37466C49.5747 9.67231 49.7884 11.2204 49.7884 13.5185C49.7884 15.8351 49.5572 18.8824 48.7107 22.315C47.9018 25.5573 46.4363 29.4637 43.7723 33.2944C41.108 37.1252 37.2511 40.9102 31.7109 43.8797L31.7081 43.8813L30.7037 44.4403L30.7023 44.4412C30.2342 44.7084 29.7192 44.7087 29.2512 44.4415L29.2493 44.4405L28.2447 43.8811L28.2429 43.8801C22.7028 40.9108 18.8449 37.1252 16.1806 33.2944C13.5187 29.4667 12.0512 25.5612 11.3162 22.27C10.4709 18.8399 10.2402 15.7573 10.2402 13.4806C10.2402 11.1827 10.4539 9.63456 10.5171 9.33682L10.6758 8.4093C10.6249 7.81117 10.9516 7.25299 11.4311 6.96462L11.4636 6.94508L11.4981 6.92937ZM11.6653 7.29523L11.7186 7.41174M17.1106 6.02982L29.7722 2.16674C29.9007 2.13637 30.0627 2.13707 30.1895 2.16887L30.1927 2.16966L43.1512 6.10762C43.5428 6.24092 43.7527 6.62528 43.6288 6.99775C43.4973 7.39357 43.1131 7.60461 42.7423 7.48197L42.7383 7.48061L29.9957 3.56591L17.5174 7.3669L17.5129 7.36837C17.1412 7.4912 16.7599 7.27891 16.6279 6.92506C16.5339 6.53495 16.7293 6.15719 17.109 6.03037L17.1106 6.02982ZM12.1059 7.5856C12.1734 7.57607 12.2448 7.57644 12.3187 7.58879C12.6145 7.6382 12.831 7.85864 12.8854 8.12905L12.8963 8.18287L20.2848 22.6316H39.7488C39.7737 22.6316 39.7979 22.6329 39.822 22.6354L40.1018 22.6656L47.0933 8.19806L47.103 8.14512C47.136 7.96487 47.2421 7.81119 47.3978 7.71945L47.41 7.71217L47.4219 7.70401C47.6135 7.57163 47.8835 7.54495 48.1236 7.65428C48.3452 7.7553 48.4741 7.95477 48.4988 8.1837L48.5 8.19601L48.7278 9.5274L48.73 9.53724C48.7724 9.72716 48.99 11.2218 48.99 13.5185C48.99 15.7826 48.7642 18.7644 47.9358 22.1234C47.1448 25.2938 45.7139 29.1052 43.1167 32.8398C40.5198 36.5739 36.7555 40.2716 31.3324 43.178L31.3307 43.1789L30.3109 43.7467L30.3069 43.7492C30.0843 43.8764 29.8698 43.8768 29.6474 43.7497L29.6459 43.749L28.6278 43.1821L28.6205 43.178C23.1975 40.2716 19.4332 36.5739 16.8363 32.8398C14.2398 29.1062 12.8096 25.2974 12.0944 22.0924L12.0934 22.088L12.0924 22.0839C11.2643 18.7255 11.0384 15.7066 11.0384 13.4806C11.0384 11.1839 11.2561 9.6893 11.2986 9.49935L11.3008 9.48953L11.482 8.43026L11.4742 8.37091C11.4384 8.09535 11.5878 7.8041 11.8365 7.65114C11.9169 7.61543 12 7.5949 12.0824 7.58822L12.0942 7.58727L12.1059 7.5856ZM12.5331 10.5247L12.4657 12.0308C12.4462 12.4645 12.4335 12.9503 12.4335 13.4806C12.4335 15.6097 12.6231 18.5379 13.4202 21.7336C14.1794 24.8146 15.5462 28.4299 18.014 32.0067L18.0152 32.0084C20.1205 35.0267 23.0268 38.0452 27.087 40.6144L28.3198 41.3945L12.5331 10.5247ZM47.5312 12.1726L47.4671 10.5792L41.4293 23.0732V23.1081L31.6812 41.3872L32.962 40.5717C36.9699 38.0202 39.8827 35.0414 41.9764 32.0071C44.4447 28.4299 45.8112 24.7772 46.5704 21.7343C47.3676 18.5384 47.5572 15.6098 47.5572 13.4806C47.5572 13.0073 47.5471 12.5695 47.5312 12.1726ZM14.195 21.5417C13.4377 18.5062 13.2417 15.713 13.2321 13.6439L26.2508 39.1013C22.9394 36.7884 20.4954 34.1697 18.671 31.5538C16.2682 28.0712 14.9356 24.5482 14.195 21.5417ZM42.2276 23.3071V23.2552L46.7567 13.8829C46.7333 15.9255 46.5243 18.6215 45.7958 21.5417C45.0545 24.5135 43.7215 28.0732 41.319 31.5551C39.5199 34.1626 37.0937 36.7349 33.8483 39.0192L42.2276 23.3071ZM21.0002 24.0307H39.3636L29.993 41.6166L21.0002 24.0307ZM30.0075 39.8926L22.3038 24.8276H38.0348L30.0075 39.8926Z" stroke="white" stroke-width="0.369543" stroke-miterlimit="10"/>
<path d="M88.3253 14.6419H70.4836C70.1697 14.6419 69.908 14.7469 69.6465 15.0089C69.4373 15.2188 69.2803 15.5333 69.2803 15.848V30.1628C69.2803 30.4774 69.3849 30.7396 69.6465 31.0017C69.8558 31.2116 70.1697 31.3688 70.4836 31.3688H88.3253V33.7808H70.4836C69.4896 33.7808 68.6523 33.4137 67.9721 32.7322C67.292 32.0505 66.9258 31.2116 66.9258 30.2152V15.7955C66.9258 14.7994 67.292 13.9603 67.9721 13.2787C68.6523 12.597 69.4896 12.23 70.4836 12.23H88.3253V14.6419Z" fill="white"/>
<path d="M87.5553 33.2305H87.7803V33.0061V32.1333V31.9089H87.5553H70.4847C69.9999 31.9089 69.5527 31.674 69.2607 31.3813C68.9037 31.0237 68.7353 30.6257 68.7353 30.1576V15.8428C68.7353 15.359 68.9685 14.9119 69.2607 14.6192C69.6177 14.2614 70.0159 14.0917 70.4847 14.0917H87.5553H87.7803V13.8673V12.9945V12.77H87.5553H70.4847C69.6413 12.77 68.9419 13.0754 68.3601 13.6584C67.7785 14.2412 67.4731 14.9432 67.4731 15.7905V30.2101C67.4731 31.0573 67.7785 31.7594 68.3601 32.3422C68.9419 32.9252 69.6413 33.2305 70.4847 33.2305H87.5553ZM67.5863 12.8888C68.365 12.1083 69.3399 11.6797 70.4847 11.6797H88.8727V15.182H70.4847C70.4258 15.182 70.3491 15.1859 70.2628 15.2228C70.1804 15.2578 70.108 15.315 70.0346 15.3886C69.9666 15.4567 69.9166 15.5353 69.8831 15.6095C69.851 15.681 69.8275 15.7638 69.8275 15.8428V30.1576C69.8275 30.2187 69.8317 30.2959 69.8685 30.3824C69.9037 30.4652 69.961 30.5381 70.0346 30.612C70.1025 30.68 70.1806 30.7299 70.2543 30.7632C70.3249 30.795 70.4067 30.8186 70.4847 30.8186H88.8727V34.3209H70.4847C69.3399 34.3209 68.365 33.8922 67.5863 33.1118C66.8075 32.3314 66.3809 31.3553 66.3809 30.2101V15.7905C66.3809 14.6453 66.8075 13.6692 67.5863 12.8888Z" fill="white" stroke="white" stroke-width="0.312331" stroke-miterlimit="10"/>
<path d="M121.81 12.23V14.6419H104.649V21.7732H118.462V24.2377H104.649V31.3688H121.81V33.7808H102.242V12.2824H121.81V12.23Z" fill="white"/>
<path d="M105.421 15.1858H105.196V15.4103V21.002V21.2267H105.421H119.009V24.7814H105.421H105.196V25.006V30.5978V30.8223H105.421H122.358V34.3246H101.697V11.7358H122.358V12.2286V15.1858H105.421ZM121.266 13.0507V12.8262H121.041H103.015H102.79V13.0507V33.0099V33.2343H103.015H121.041H121.266V33.0099V32.137V31.9126H121.041H104.104V23.691H117.692H117.917V23.4666V22.5414V22.317H117.692H104.104V14.0954H121.041H121.266V13.871V13.0507Z" fill="white" stroke="white" stroke-width="0.312331" stroke-miterlimit="10"/>
<path d="M157.18 15.7955V22.0879C157.18 23.0841 156.815 23.923 156.135 24.6047C155.454 25.2863 154.616 25.6533 153.624 25.6533H150.327L157.077 33.6759H153.884L147.135 25.7058H139.286C139.129 25.7058 138.711 25.6533 138.135 25.6009V33.7285H135.729V12.23H153.624C154.616 12.23 155.454 12.597 156.135 13.2787C156.815 13.9603 157.18 14.7994 157.18 15.7955ZM139.286 23.2414H153.57C153.884 23.2414 154.146 23.1366 154.355 22.9268C154.565 22.717 154.669 22.4548 154.669 22.1402V15.848C154.669 15.5333 154.565 15.2711 154.355 15.0089C154.146 14.7994 153.884 14.6419 153.57 14.6419H139.286C138.973 14.6419 138.711 14.7469 138.449 15.0089C138.24 15.2188 138.083 15.5333 138.083 15.848V22.1402C138.083 22.4548 138.188 22.717 138.449 22.9268C138.658 23.1366 138.973 23.2414 139.286 23.2414Z" fill="white"/>
<path d="M151.81 26.5623L158.248 34.2161H153.633L146.95 26.3254L146.884 26.2459H146.778H139.287C139.2 26.2459 139.072 26.2355 138.929 26.2217L138.683 26.198V26.4451V34.2684H135.184V11.6797H153.624C154.768 11.6797 155.744 12.1083 156.522 12.8888C157.301 13.6692 157.728 14.6453 157.728 15.7905V22.0827C157.728 23.2278 157.301 24.2039 156.522 24.9843C155.744 25.7647 154.768 26.1935 153.624 26.1935H151.981H151.499L151.81 26.5623ZM136.276 32.9537V33.1781H136.501H137.365H137.59V32.9537V24.9986L138.186 25.0529C138.409 25.0733 138.611 25.0937 138.779 25.1108L138.923 25.1255C139.021 25.1353 139.102 25.143 139.167 25.1483C139.199 25.1509 139.226 25.1528 139.247 25.1541L139.273 25.1552L139.281 25.1554L139.284 25.1555H139.286H139.288H147.39L154.072 33.0461L154.14 33.1258H154.243H155.423H155.905L155.594 32.7567L149.156 25.1031H153.624C154.467 25.1031 155.166 24.7977 155.748 24.2148C156.33 23.6318 156.635 22.93 156.635 22.0827V15.7905C156.635 14.9432 156.33 14.2412 155.748 13.6584C155.166 13.0754 154.467 12.77 153.624 12.77H136.501H136.276V12.9945V32.9537ZM138.091 23.3329L138.08 23.3234C137.695 23.0013 137.538 22.5837 137.538 22.1351V15.8428C137.538 15.359 137.771 14.9119 138.063 14.6192C138.421 14.2614 138.819 14.0917 139.287 14.0917H153.571C154.082 14.0917 154.474 14.3497 154.743 14.6192L154.765 14.6407L154.783 14.6642C155.057 15.0066 155.217 15.3856 155.217 15.8428V22.1351C155.217 22.584 155.061 22.9876 154.743 23.3063C154.425 23.6252 154.022 23.7814 153.571 23.7814H139.287C138.876 23.7814 138.423 23.6492 138.091 23.3329ZM138.792 22.4966L138.816 22.5156L138.837 22.537C138.92 22.6198 139.081 22.6911 139.287 22.6911H153.571C153.653 22.6911 153.728 22.6803 153.8 22.6515C153.873 22.6221 153.927 22.5794 153.97 22.537C154.012 22.4941 154.055 22.4401 154.084 22.3664C154.114 22.2943 154.124 22.2174 154.124 22.1351V15.8428C154.124 15.6877 154.084 15.5507 153.96 15.3846L153.948 15.3676L153.932 15.3531C153.796 15.2274 153.676 15.182 153.571 15.182H139.287C139.229 15.182 139.152 15.1859 139.066 15.2228C138.983 15.2578 138.911 15.315 138.837 15.3886C138.769 15.4567 138.719 15.5353 138.686 15.6095C138.654 15.681 138.63 15.7638 138.63 15.8428V22.1351C138.63 22.2318 138.646 22.2972 138.668 22.3446C138.688 22.3901 138.723 22.4408 138.792 22.4966Z" fill="white"/>
<path d="M139.247 25.1541C139.226 25.1528 139.199 25.1509 139.167 25.1483C139.102 25.143 139.021 25.1353 138.923 25.1255L138.779 25.1108C138.611 25.0937 138.409 25.0733 138.186 25.0529L137.59 24.9986V32.9537V33.1781H137.365H136.501H136.276V32.9537V12.9945V12.77H136.501H153.624C154.467 12.77 155.166 13.0754 155.748 13.6584C156.33 14.2412 156.635 14.9432 156.635 15.7905V22.0827C156.635 22.93 156.33 23.6318 155.748 24.2148C155.166 24.7977 154.467 25.1031 153.624 25.1031H149.156L155.594 32.7567L155.905 33.1258H155.423H154.243H154.14L154.072 33.0461L147.39 25.1555H139.288H139.286M139.247 25.1541L139.259 24.9339M139.247 25.1541L139.273 25.1552L139.281 25.1554L139.284 25.1555H139.286M139.286 25.1555L139.288 24.9311M154.743 14.6192C154.474 14.3497 154.082 14.0917 153.571 14.0917H139.287C138.819 14.0917 138.421 14.2614 138.063 14.6192C137.771 14.9119 137.538 15.359 137.538 15.8428V22.1351C137.538 22.5837 137.695 23.0013 138.08 23.3234L138.091 23.3329C138.423 23.6492 138.876 23.7814 139.287 23.7814H153.571C154.022 23.7814 154.425 23.6252 154.743 23.3063C155.061 22.9876 155.217 22.584 155.217 22.1351V15.8428C155.217 15.3856 155.057 15.0066 154.783 14.6642M154.743 14.6192L154.897 14.4663M154.743 14.6192L154.765 14.6407L154.783 14.6642M154.783 14.6642L154.959 14.5242M138.792 22.4966L138.931 22.3238M138.792 22.4966L138.816 22.5156L138.837 22.537C138.92 22.6198 139.081 22.6911 139.287 22.6911H153.571C153.653 22.6911 153.728 22.6803 153.8 22.6515C153.873 22.6221 153.927 22.5794 153.97 22.537C154.012 22.4941 154.055 22.4401 154.084 22.3664C154.114 22.2943 154.124 22.2174 154.124 22.1351V15.8428C154.124 15.6877 154.084 15.5507 153.96 15.3846L153.948 15.3676L153.932 15.3531C153.796 15.2274 153.676 15.182 153.571 15.182H139.287C139.229 15.182 139.152 15.1859 139.066 15.2228C138.983 15.2578 138.911 15.315 138.837 15.3886C138.769 15.4567 138.719 15.5353 138.686 15.6095C138.654 15.681 138.63 15.7638 138.63 15.8428V22.1351C138.63 22.2318 138.646 22.2972 138.668 22.3446M138.792 22.4966C138.723 22.4408 138.688 22.3901 138.668 22.3446M138.668 22.3446L138.858 22.2595M151.81 26.5623L158.248 34.2161H153.633L146.95 26.3254L146.884 26.2459H146.778H139.287C139.2 26.2459 139.072 26.2355 138.929 26.2217L138.683 26.198V26.4451V34.2684H135.184V11.6797H153.624C154.768 11.6797 155.744 12.1083 156.522 12.8888C157.301 13.6692 157.728 14.6453 157.728 15.7905V22.0827C157.728 23.2278 157.301 24.2039 156.522 24.9843C155.744 25.7647 154.768 26.1935 153.624 26.1935H151.981H151.499L151.81 26.5623Z" stroke="white" stroke-width="0.312331" stroke-miterlimit="10"/>
<path d="M170 12.23H191.452V14.6419H181.929V33.7285H179.521V14.6419H170V12.23Z" fill="white"/>
<path d="M182.7 15.182H182.475V15.4065V34.2684H178.974V15.4065V15.182H178.75H169.453V11.6797H191.996V15.182H182.7ZM170.545 13.8673V14.0917H170.771H180.067V32.9537V33.1781H180.292H181.157H181.382V32.9537V14.0917H190.679H190.905V13.8673V12.9945V12.77H190.679H170.771H170.545V12.9945V13.8673Z" fill="white" stroke="white" stroke-width="0.312331" stroke-miterlimit="10"/>
<path d="M204.426 33.7285V12.23H206.832V33.7285H204.426Z" fill="white"/>
<path d="M204.974 32.9537V33.1781H205.198H206.062H206.289V32.9537V12.9945V12.77H206.062H205.198H204.974V12.9945V32.9537ZM203.881 34.2684V11.6797H207.38V34.2684H203.881Z" fill="white" stroke="white" stroke-width="0.312331" stroke-miterlimit="10"/>
<path d="M239.062 12.23H242.149L233.203 22.9792L242.203 33.7285H239.062L231.059 24.1852H224.151V33.7285H221.691V12.23H224.151V21.7732H231.059L239.062 12.23Z" fill="white"/>
<path d="M238.81 11.6797H243.315L234.034 22.8292L233.915 22.9731L234.036 23.1167L243.371 34.2684H238.81L230.871 24.8056L230.803 24.7253H230.699H224.924H224.699V24.9498V34.2684H221.146V11.6797H224.699V20.9984V21.223H224.924H230.699H230.803L230.871 21.1426L238.81 11.6797ZM222.239 32.9537V33.1781H222.464H223.381H223.606V32.9537V23.6348H231.314L239.252 33.0977L239.319 33.1781H239.424H240.555H241.036L240.726 32.8096L232.494 22.9751L240.68 13.138L240.987 12.77H240.509H239.424H239.319L239.252 12.8504L231.314 22.3133H223.606V12.9945V12.77H223.381H222.464H222.239V12.9945V32.9537Z" fill="white" stroke="white" stroke-width="0.312331" stroke-miterlimit="10"/>
</svg>
