<svg width="66" height="68" viewBox="0 0 66 68" fill="none" xmlns="http://www.w3.org/2000/svg">
<path d="M34.5583 30.3974C34.5093 29.4844 34.5131 28.5639 34.547 27.649C34.6149 25.7627 35.8523 24.3367 37.7217 24.1009C38.3951 24.016 38.4762 23.7557 38.4649 23.1822C38.4498 21.9599 39.3269 21.2507 40.3512 21.5826C41.002 21.792 41.3755 22.3372 41.3359 23.186C41.3095 23.7519 41.3943 24.0179 42.0678 24.099C43.8239 24.3103 45.018 25.608 45.2481 27.3604C45.3707 28.3036 44.8538 29.0487 43.9956 29.1713C43.2222 29.2826 42.5073 28.7356 42.3903 27.8509C42.3017 27.1737 41.9716 26.919 41.317 26.9341C40.3531 26.9549 39.3892 26.9341 38.4253 26.9341C37.6858 26.9341 37.4218 27.2095 37.4104 27.9584C37.401 28.5941 37.4104 29.2298 37.4104 29.8636C37.4104 30.6653 37.667 30.9256 38.4517 30.935C39.4156 30.9444 40.3795 30.935 41.3434 30.935C43.707 30.9633 45.2556 32.5233 45.2783 34.8963C45.2858 35.554 45.2858 36.2123 45.2783 36.8712C45.2519 39.0254 43.922 40.5269 41.7924 40.7514C41.4151 40.791 41.3076 40.8947 41.3453 41.2437C41.3641 41.4552 41.3641 41.6679 41.3453 41.8794C41.3313 42.2475 41.1805 42.5971 40.9223 42.8598C40.6641 43.1225 40.3172 43.2794 39.9494 43.2998C39.2119 43.3319 38.4668 42.766 38.5007 41.9794C38.5441 41.006 38.1838 40.7552 37.2652 40.5986C35.6939 40.3289 34.5546 38.7538 34.5395 37.173C34.5395 36.3148 35.0563 35.6979 35.8599 35.6244C36.0484 35.6066 36.2386 35.6269 36.4191 35.6842C36.5996 35.7414 36.7668 35.8344 36.9106 35.9576C37.0544 36.0808 37.1719 36.2317 37.2562 36.4013C37.3404 36.5709 37.3897 36.7558 37.401 36.9448C37.4765 37.6239 37.8198 37.888 38.4668 37.8766C39.4552 37.8653 40.4417 37.8766 41.4302 37.8766C42.064 37.8766 42.3847 37.5711 42.3733 36.9241C42.3639 36.1959 42.3733 35.4678 42.3733 34.7378C42.3733 34.1719 42.064 33.872 41.4962 33.8644C40.9284 33.8569 40.321 33.8644 39.6495 33.8644C38.9836 33.8211 38.231 33.9305 37.484 33.7682C36.691 33.6117 35.9727 33.1952 35.4429 32.5848C34.913 31.9743 34.6018 31.2046 34.5583 30.3974Z" fill="white"/>
<path d="M65.7607 48.8156C65.6702 47.3405 64.8572 46.3445 63.5273 45.7409C62.0993 45.1118 60.5775 44.7218 59.0228 44.5865C59.0624 44.4639 59.087 44.379 59.1171 44.2941C60.5149 40.4932 60.4791 36.6545 59.351 32.8065C58.1589 28.732 55.8331 25.3159 53.0489 22.1752C51.3512 20.27 49.4328 18.61 47.6182 16.835C47.3107 16.5351 47.2711 16.3691 47.5899 16.0126C47.9895 15.5723 48.285 15.0477 48.4543 14.4777C48.6236 13.9077 48.6624 13.3069 48.5678 12.7199C48.4732 12.1328 48.2477 11.5746 47.9079 11.0866C47.5682 10.5986 47.1229 10.1934 46.6052 9.90092C46.1714 9.6557 46.1468 9.46141 46.294 9.04265C47.0016 6.97753 47.507 4.84857 47.803 2.68576C47.9388 1.77278 47.6672 0.999393 46.9165 0.450475C46.1657 -0.0984425 45.3546 -0.128624 44.5265 0.29957C44.2134 0.459907 43.9078 0.637221 43.5833 0.776808C41.7366 1.58227 39.8597 2.24625 37.7942 1.82371C36.3701 1.51925 34.9986 1.00698 33.7236 0.303343C33.3572 0.0837001 32.9332 -0.0207883 32.5067 0.00342891C32.0803 0.0276462 31.6709 0.179452 31.3317 0.439158C30.5923 0.96544 30.332 1.7011 30.4489 2.5971C30.736 4.80892 31.2479 6.98567 31.9768 9.09358C32.107 9.47084 32.107 9.67079 31.6863 9.89903C30.9779 10.2808 30.4046 10.872 30.0447 11.5917C29.6848 12.3115 29.5559 13.1249 29.6755 13.9207C29.7578 14.4727 29.9505 15.0024 30.2422 15.4782C30.5339 15.954 30.9186 16.3661 31.3732 16.6898C30.6621 17.3538 29.9943 17.9951 29.3284 18.6138C27.0007 20.7491 24.822 23.0127 23.0149 25.6234C19.9968 29.9751 18.2218 34.6965 18.7575 40.0914C18.7953 40.48 18.6349 40.5045 18.3293 40.5007C17.2485 40.4894 16.1657 40.5007 15.0849 40.4913C14.4567 40.4913 13.6324 40.7629 13.2551 40.3762C12.8779 39.9895 13.1552 39.1728 13.1457 38.5446C13.1269 37.211 12.644 36.7187 11.3085 36.7168C8.1558 36.7168 5.0044 36.7168 1.85425 36.7168C0.488556 36.7168 0 37.2148 0 38.6031V62.3782C0 62.5197 0 62.6612 0 62.8008C0.0452716 63.6534 0.565895 64.2306 1.42417 64.2344C4.85726 64.2532 8.29099 64.2532 11.7253 64.2344C12.5817 64.2344 13.1061 63.6685 13.1344 62.797C13.1533 62.2104 13.1344 61.6218 13.1344 60.9578C13.3796 61.0389 13.5362 61.0804 13.6833 61.1465C18.6469 63.146 23.6022 65.148 28.5494 67.1525C31.0129 68.1466 33.5104 68.2843 36.0588 67.4694C38.0443 66.8208 39.9577 65.9693 41.7687 64.9285C49.1536 60.739 56.5027 56.4816 63.8669 52.2506C65.1967 51.4961 65.8551 50.3379 65.7607 48.8156ZM10.3031 60.8013C10.3031 61.2521 10.2012 61.3973 9.73716 61.3917C7.64461 61.369 5.55206 61.3735 3.4595 61.4049C2.99924 61.4049 2.92568 61.2672 2.92756 60.8522C2.94454 57.3965 2.92756 53.9389 2.92756 50.4775C2.92756 47.0821 2.93888 43.7037 2.91624 40.3178C2.91624 39.8009 2.99736 39.5972 3.58589 39.6085C5.63065 39.65 7.67919 39.6406 9.72396 39.6085C10.1861 39.6085 10.3049 39.7292 10.3049 40.1914C10.2936 47.0639 10.2949 53.9338 10.3087 60.8013H10.3031ZM44.7623 3.41199C44.4081 5.34155 43.8978 7.23914 43.2362 9.08603C43.1268 9.39539 42.9344 9.38784 42.6949 9.38784H35.5759C35.342 9.38784 35.1175 9.41991 35.01 9.11055C34.3537 7.25066 33.8416 5.34298 33.4783 3.40445C37.2774 5.30774 40.984 5.31717 44.7623 3.41199ZM33.8933 12.2777C35.6539 12.2777 37.4144 12.2777 39.175 12.2777C40.9117 12.2777 42.649 12.2777 44.3869 12.2777C45.2471 12.2777 45.7168 12.67 45.7262 13.3717C45.7356 14.0735 45.264 14.5035 44.4171 14.5035C40.896 14.5035 37.3748 14.5035 33.8537 14.5035C33.0086 14.5035 32.5465 14.081 32.5578 13.3717C32.5691 12.6625 33.0237 12.2758 33.8933 12.2739V12.2777ZM23.6242 30.2373C25.5105 26.5703 28.2438 23.5711 31.2563 20.8057C32.3315 19.8211 33.418 18.8458 34.3366 17.7065C34.4293 17.5889 34.5501 17.4967 34.688 17.4383C34.8258 17.3799 34.9762 17.3573 35.1251 17.3726C36.5606 17.3877 37.9942 17.3726 39.4297 17.3726H43.6644C43.9153 17.3726 44.1662 17.3292 44.3699 17.5745C46.0469 19.589 48.1426 21.1811 49.9346 23.0806C52.698 26.0101 55.1068 29.1734 56.3744 33.0573C57.5704 36.7243 57.7118 40.38 56.0783 43.9829C55.8312 44.5261 55.5445 44.8845 54.8975 45.0109C53.5054 45.2844 52.2679 45.9937 51.0003 46.5973C49.0461 47.5348 47.1089 48.4648 45.1735 49.4211C44.7868 49.6098 44.668 49.5815 44.5303 49.1382C43.8342 46.9142 42.0007 45.5881 39.6692 45.5806C37.1051 45.573 34.5416 45.573 31.9787 45.5806C31.8182 45.5925 31.657 45.5694 31.5063 45.5131C31.3555 45.4568 31.2187 45.3685 31.1053 45.2543C28.7094 42.864 25.6186 41.2932 22.2755 40.7667C21.5342 40.6479 21.6492 40.1272 21.6115 39.6821C21.3286 36.3339 22.0925 33.1988 23.6242 30.2373ZM62.2333 49.8078C54.9107 54.0156 47.5867 58.2189 40.2615 62.4178C38.6813 63.3376 37.0107 64.0923 35.276 64.6701C33.4537 65.2829 31.4712 65.2159 29.6944 64.4815C24.3637 62.3518 19.0405 60.2033 13.7041 58.0887C13.2438 57.9001 13.1382 57.6738 13.1382 57.2154C13.1571 52.8429 13.1571 48.4692 13.1382 44.0942C13.1382 43.5415 13.274 43.3849 13.8324 43.3962C15.8771 43.4377 17.9257 43.3774 19.9685 43.4472C23.6619 43.5735 26.7951 45.0279 29.3511 47.6782C29.6059 47.965 29.9215 48.1912 30.275 48.3404C30.6284 48.4895 31.0107 48.5578 31.394 48.5402C34.1216 48.5044 36.8511 48.5402 39.5787 48.5232C40.2993 48.5232 40.9236 48.7119 41.3895 49.2778C41.588 49.5115 41.7202 49.7942 41.7721 50.0964C41.824 50.3986 41.7939 50.7092 41.6848 50.9958C41.5757 51.2824 41.3917 51.5344 41.152 51.7256C40.9122 51.9168 40.6256 52.0401 40.3219 52.0827C40.0424 52.1186 39.7604 52.1319 39.4787 52.1223H24.524C24.2882 52.1223 24.0505 52.1129 23.8185 52.1355C22.9169 52.2261 22.3755 52.8278 22.4208 53.671C22.4641 54.4614 23.0527 55.0178 23.9298 55.0235C26.6574 55.0367 29.385 55.0235 32.1126 55.0235C34.6761 55.0235 37.2396 55.0235 39.8032 55.0235C40.4628 55.0432 41.1194 54.9266 41.7319 54.6809C42.3444 54.4352 42.8995 54.0657 43.3626 53.5955C43.5445 53.4137 43.7572 53.2655 43.9908 53.1579C47.3296 51.5564 50.6589 49.9323 54.0052 48.3478C56.7159 47.0632 59.4529 47.133 62.1862 48.3007C62.5106 48.4402 62.8502 48.5647 62.8502 49.0193C62.8502 49.4739 62.5427 49.6305 62.2333 49.8078Z" fill="white"/>
<path d="M45.2727 36.8698C45.2463 39.0239 43.9164 40.5254 41.7868 40.7499C41.4095 40.7895 41.302 40.8933 41.3397 41.2422C41.3585 41.4537 41.3585 41.6664 41.3397 41.8779C41.3257 42.246 41.1749 42.5956 40.9167 42.8583C40.6585 43.121 40.3116 43.2779 39.9438 43.2983C39.2063 43.3304 38.4612 42.7645 38.4951 41.9779C38.5385 41.0046 38.1782 40.7537 37.2596 40.5971C35.6883 40.3274 34.549 38.7523 34.5339 37.1716C34.5339 36.3133 35.0507 35.6965 35.8543 35.6229C36.0428 35.6051 36.233 35.6254 36.4135 35.6827C36.594 35.7399 36.7612 35.8329 36.905 35.9561C37.0488 36.0794 37.1663 36.2303 37.2506 36.3999C37.3349 36.5695 37.3841 36.7543 37.3954 36.9433C37.4709 37.6224 37.8142 37.8865 38.4612 37.8752C39.4496 37.8638 40.4362 37.8752 41.4246 37.8752C42.0584 37.8752 42.3791 37.5696 42.3677 36.9226C42.3583 36.1945 42.3677 35.4663 42.3677 34.7363C42.3677 34.1704 42.0584 33.8705 41.4906 33.863C40.9228 33.8554 40.3154 33.863 39.6439 33.863C38.978 33.8196 38.2254 33.929 37.4784 33.7668C36.6888 33.6093 35.9739 33.1942 35.4457 32.5865C34.9176 31.9788 34.6062 31.2129 34.5603 30.4091C34.5112 29.4961 34.515 28.5756 34.549 27.6608C34.6169 25.7744 35.8543 24.3484 37.7236 24.1126C38.3971 24.0277 38.4782 23.7674 38.4668 23.194C38.4518 21.9716 39.3289 21.2624 40.3532 21.5944C41.0039 21.8037 41.3774 22.3489 41.3378 23.1977C41.3114 23.7636 41.3963 24.0296 42.0697 24.1107C43.8259 24.322 45.0199 25.6198 45.25 27.3722C45.3726 28.3153 44.8558 29.0604 43.9975 29.183C43.2241 29.2943 42.5092 28.7473 42.3923 27.8626C42.3036 27.1854 41.9735 26.9308 41.319 26.9458C40.355 26.9666 39.3911 26.9458 38.4272 26.9458C37.6878 26.9458 37.4237 27.2212 37.4124 27.9701C37.403 28.6058 37.4124 29.2415 37.4124 29.8753C37.4124 30.677 37.6689 30.9373 38.4536 30.9467C39.4175 30.9562 40.3815 30.9467 41.3454 30.9467C43.7089 30.975 45.2576 32.535 45.2802 34.908C45.2878 35.5569 45.2852 36.2108 45.2727 36.8698Z" fill="#FEFEFE"/>
<path d="M45.2727 36.8698C45.2463 39.0239 43.9164 40.5254 41.7868 40.7499C41.4095 40.7895 41.302 40.8933 41.3397 41.2422C41.3585 41.4537 41.3585 41.6664 41.3397 41.8779C41.3257 42.246 41.1749 42.5956 40.9167 42.8583C40.6585 43.121 40.3116 43.2779 39.9438 43.2983C39.2063 43.3304 38.4612 42.7645 38.4951 41.9779C38.5385 41.0046 38.1782 40.7537 37.2596 40.5971C35.6883 40.3274 34.549 38.7523 34.5339 37.1716C34.5339 36.3133 35.0507 35.6965 35.8543 35.6229C36.0428 35.6051 36.233 35.6254 36.4135 35.6827C36.594 35.7399 36.7612 35.8329 36.905 35.9561C37.0488 36.0794 37.1663 36.2303 37.2506 36.3999C37.3349 36.5695 37.3841 36.7543 37.3954 36.9433C37.4709 37.6224 37.8142 37.8865 38.4612 37.8752C39.4496 37.8638 40.4362 37.8752 41.4246 37.8752C42.0584 37.8752 42.3791 37.5696 42.3677 36.9226C42.3583 36.1945 42.3677 35.4663 42.3677 34.7363C42.3677 34.1704 42.0584 33.8705 41.4906 33.863C40.9228 33.8554 40.3154 33.863 39.6439 33.863C38.978 33.8196 38.2254 33.929 37.4784 33.7668C36.6888 33.6093 35.9739 33.1942 35.4457 32.5865C34.9176 31.9788 34.6062 31.2129 34.5603 30.4091C34.5112 29.4961 34.515 28.5756 34.549 27.6608C34.6169 25.7744 35.8543 24.3484 37.7236 24.1126C38.3971 24.0277 38.4782 23.7674 38.4668 23.194C38.4518 21.9716 39.3289 21.2624 40.3532 21.5944C41.0039 21.8037 41.3774 22.3489 41.3378 23.1977C41.3114 23.7636 41.3963 24.0296 42.0697 24.1107C43.8259 24.322 45.0199 25.6198 45.25 27.3722C45.3726 28.3153 44.8558 29.0604 43.9975 29.183C43.2241 29.2943 42.5092 28.7473 42.3923 27.8626C42.3036 27.1854 41.9735 26.9308 41.319 26.9458C40.355 26.9666 39.3911 26.9458 38.4272 26.9458C37.6878 26.9458 37.4237 27.2212 37.4124 27.9701C37.403 28.6058 37.4124 29.2415 37.4124 29.8753C37.4124 30.677 37.6689 30.9373 38.4536 30.9467C39.4175 30.9562 40.3815 30.9467 41.3454 30.9467C43.7089 30.975 45.2576 32.535 45.2802 34.908C45.2878 35.5569 45.2852 36.2108 45.2727 36.8698Z" fill="white"/>
</svg>
