<svg width="25" height="25" viewBox="0 0 25 25" fill="none" xmlns="http://www.w3.org/2000/svg">
<path d="M5.6 5.6L7.9 3.3M7.9 3.3L5.6 1M7.9 3.3H5.6C3.05949 3.3 1 5.35949 1 7.9M19.4 19.4L17.1 21.7M17.1 21.7L19.4 24M17.1 21.7H19.4C21.9405 21.7 24 19.6405 24 17.1M10.4173 6.175C11.1834 3.19898 13.8848 1 17.1 1C20.9108 1 24 4.08923 24 7.9C24 11.1151 21.8011 13.8166 18.8251 14.5826M14.8 17.1C14.8 20.9108 11.7108 24 7.9 24C4.08923 24 1 20.9108 1 17.1C1 13.2892 4.08923 10.2 7.9 10.2C11.7108 10.2 14.8 13.2892 14.8 17.1Z" stroke="white" stroke-width="2" stroke-linecap="round" stroke-linejoin="round"/>
</svg>
