<svg width="27" height="27" viewBox="0 0 27 27" fill="none" xmlns="http://www.w3.org/2000/svg">
<path d="M13.1795 17.6668L9.33333 13.8207M13.1795 17.6668C14.9703 16.9856 16.6883 16.1267 18.3077 15.1027M13.1795 17.6668V24.0769C13.1795 24.0769 17.0641 23.3718 18.3077 21.5129C19.6923 19.436 18.3077 15.1027 18.3077 15.1027M9.33333 13.8207C10.0156 12.0507 10.8746 10.3541 11.8974 8.75663C13.3913 6.36819 15.4713 4.40162 17.9397 3.04401C20.4082 1.68639 23.1829 0.982844 26 1.00032C26 4.48745 25 10.6156 18.3077 15.1027M9.33333 13.8207H2.92308C2.92308 13.8207 3.62821 9.9361 5.48718 8.69253C7.5641 7.30793 11.8974 8.69253 11.8974 8.69253M3.5641 19.5898C1.64103 21.2052 1 26 1 26C1 26 5.79487 25.359 7.41026 23.4359C8.32051 22.359 8.30769 20.7052 7.29487 19.7052C6.79655 19.2296 6.14012 18.9547 5.45158 18.9334C4.76303 18.9121 4.09087 19.1459 3.5641 19.5898Z" stroke="white" stroke-width="2" stroke-linecap="round" stroke-linejoin="round"/>
</svg>
