<svg width="27" height="28" viewBox="0 0 27 28" fill="none" xmlns="http://www.w3.org/2000/svg">
<path d="M7.94444 21.4483H19.0556M12.1357 1.69001L2.71582 9.01144C2.08614 9.50085 1.77131 9.74555 1.54449 10.052C1.34357 10.3235 1.19389 10.6293 1.10282 10.9544C1 11.3214 1 11.72 1 12.5172V22.5587C1 24.1133 1 24.8906 1.30276 25.4844C1.56907 26.0067 1.99401 26.4314 2.51669 26.6974C3.11089 27 3.88874 27 5.44444 27H21.5556C23.1112 27 23.8892 27 24.4833 26.6974C25.006 26.4314 25.431 26.0067 25.6972 25.4844C26 24.8906 26 24.1133 26 22.5587V12.5172C26 11.72 26 11.3214 25.8972 10.9544C25.8061 10.6293 25.6564 10.3235 25.4556 10.052C25.2287 9.74555 24.9139 9.50085 24.2842 9.01144L14.8643 1.69001C14.3764 1.31076 14.1324 1.12113 13.8629 1.04824C13.6253 0.983921 13.3747 0.983921 13.1371 1.04824C12.8676 1.12113 12.6236 1.31076 12.1357 1.69001Z" stroke="white" stroke-width="2" stroke-linecap="round" stroke-linejoin="round"/>
</svg>
