<svg width="512" height="98" viewBox="0 0 512 98" fill="none" xmlns="http://www.w3.org/2000/svg">
<g clip-path="url(#clip0_1_256)">
<path fill-rule="evenodd" clip-rule="evenodd" d="M94.7265 3.69064H3.69064V94.7265H94.7265V3.69064ZM0 0V98.4172H98.4172V0H0Z" fill="black"/>
<mask id="mask0_1_256" style="mask-type:alpha" maskUnits="userSpaceOnUse" x="0" y="0" width="99" height="99">
<path fill-rule="evenodd" clip-rule="evenodd" d="M93.2373 5.17985H5.17985V93.2373H93.2373V5.17985ZM0 0V98.4172H98.4172V0H0Z" fill="#EED16C"/>
</mask>
<g mask="url(#mask0_1_256)">
<g filter="url(#filter0_f_1_256)">
<ellipse cx="6.33103" cy="49.8321" rx="14.6762" ry="30.6475" fill="black"/>
</g>
<g filter="url(#filter1_f_1_256)">
<ellipse cx="49.6405" cy="1.7266" rx="14.6762" ry="30.6475" transform="rotate(90 49.6405 1.7266)" fill="black"/>
</g>
<g filter="url(#filter2_f_1_256)">
<ellipse cx="103.022" cy="49.8321" rx="14.6762" ry="30.6475" fill="black"/>
</g>
<g filter="url(#filter3_f_1_256)">
<ellipse cx="49.6405" cy="98.4172" rx="14.6762" ry="30.6475" transform="rotate(90 49.6405 98.4172)" fill="black"/>
</g>
</g>
<rect x="30.7398" y="56.6863" width="11.465" height="11.465" fill="black"/>
<rect x="30.7398" y="30.2287" width="11.465" height="11.465" fill="black"/>
<rect x="44.8502" y="43.4576" width="10.583" height="11.465" fill="black"/>
<rect x="58.0794" y="56.6863" width="11.465" height="11.465" fill="black"/>
<rect x="58.0794" y="30.2287" width="11.465" height="11.465" fill="black"/>
<rect x="72.1898" y="17" width="11.465" height="11.465" fill="black"/>
<rect x="72.1898" y="69.9152" width="11.465" height="11.465" fill="black"/>
<rect x="15.7469" y="17" width="11.465" height="11.465" fill="black"/>
<rect x="15.7471" y="69.9152" width="11.465" height="11.465" fill="black"/>
<path d="M379.214 64.0703L378.519 49.6133L404.418 22.3227H418.333L394.986 47.4486L388.028 54.8704L379.214 64.0703ZM368.004 76.44V22.3227H380.451V76.44H368.004ZM405.036 76.44L385.786 52.8603L393.981 43.9696L419.648 76.44H405.036Z" fill="black"/>
<path d="M337.204 77.3677C333.029 77.3677 329.138 76.6977 325.53 75.3577C321.974 73.9661 318.881 72.0076 316.253 69.4821C313.624 66.9566 311.562 63.993 310.068 60.5914C308.625 57.1897 307.903 53.4531 307.903 49.3814C307.903 45.3097 308.625 41.573 310.068 38.1714C311.562 34.7697 313.624 31.8062 316.253 29.2807C318.933 26.7552 322.051 24.8224 325.607 23.4824C329.163 22.0908 333.055 21.395 337.281 21.395C341.971 21.395 346.197 22.2197 349.96 23.869C353.774 25.4667 356.969 27.8376 359.546 30.9815L351.506 38.4033C349.651 36.2902 347.589 34.7182 345.321 33.6874C343.053 32.605 340.58 32.0639 337.899 32.0639C335.374 32.0639 333.055 32.4762 330.942 33.3008C328.828 34.1255 326.999 35.3109 325.452 36.8571C323.906 38.4033 322.695 40.233 321.819 42.3461C320.994 44.4593 320.582 46.8044 320.582 49.3814C320.582 51.9584 320.994 54.3035 321.819 56.4166C322.695 58.5298 323.906 60.3595 325.452 61.9057C326.999 63.4519 328.828 64.6373 330.942 65.4619C333.055 66.2866 335.374 66.6989 337.899 66.6989C340.58 66.6989 343.053 66.1835 345.321 65.1527C347.589 64.0704 349.651 62.4468 351.506 60.2821L359.546 67.7039C356.969 70.8479 353.774 73.2445 349.96 74.8938C346.197 76.5431 341.945 77.3677 337.204 77.3677Z" fill="black"/>
<path d="M272.36 77.3677C268.082 77.3677 264.113 76.6719 260.454 75.2804C256.846 73.8888 253.702 71.9302 251.022 69.4048C248.393 66.8793 246.332 63.9157 244.837 60.5141C243.394 57.1124 242.672 53.4015 242.672 49.3814C242.672 45.3612 243.394 41.6503 244.837 38.2487C246.332 34.847 248.419 31.8835 251.099 29.358C253.779 26.8325 256.923 24.874 260.531 23.4824C264.139 22.0908 268.056 21.395 272.282 21.395C276.56 21.395 280.477 22.0908 284.033 23.4824C287.641 24.874 290.759 26.8325 293.388 29.358C296.068 31.8835 298.156 34.847 299.65 38.2487C301.145 41.5988 301.892 45.3097 301.892 49.3814C301.892 53.4015 301.145 57.1382 299.65 60.5914C298.156 63.993 296.068 66.9566 293.388 69.4821C290.759 71.956 287.641 73.8888 284.033 75.2804C280.477 76.6719 276.586 77.3677 272.36 77.3677ZM272.282 66.6989C274.705 66.6989 276.921 66.2866 278.931 65.4619C280.993 64.6373 282.797 63.4519 284.343 61.9057C285.889 60.3595 287.074 58.5298 287.899 56.4166C288.775 54.3035 289.213 51.9584 289.213 49.3814C289.213 46.8044 288.775 44.4593 287.899 42.3461C287.074 40.233 285.889 38.4033 284.343 36.8571C282.848 35.3109 281.07 34.1255 279.008 33.3008C276.947 32.4762 274.705 32.0639 272.282 32.0639C269.86 32.0639 267.618 32.4762 265.556 33.3008C263.546 34.1255 261.768 35.3109 260.222 36.8571C258.676 38.4033 257.464 40.233 256.588 42.3461C255.764 44.4593 255.351 46.8044 255.351 49.3814C255.351 51.9069 255.764 54.2519 256.588 56.4166C257.464 58.5298 258.65 60.3595 260.145 61.9057C261.691 63.4519 263.495 64.6373 265.556 65.4619C267.618 66.2866 269.86 66.6989 272.282 66.6989Z" fill="black"/>
<path d="M200.322 76.44V22.3227H212.847V66.235H239.982V76.44H200.322Z" fill="black"/>
<path d="M141.207 76.44V22.3227H167.647C174.451 22.3227 179.553 23.6112 182.955 26.1882C186.408 28.7653 188.135 32.1669 188.135 36.3932C188.135 39.2279 187.439 41.7019 186.047 43.815C184.656 45.8766 182.749 47.4744 180.326 48.6083C177.904 49.7421 175.121 50.3091 171.977 50.3091L173.446 47.1394C176.847 47.1394 179.862 47.7063 182.491 48.8402C185.119 49.9225 187.155 51.5461 188.598 53.7107C190.093 55.8754 190.84 58.5298 190.84 61.6737C190.84 66.3123 189.011 69.9459 185.351 72.5745C181.692 75.1515 176.306 76.44 169.194 76.44H141.207ZM153.654 67.0081H168.266C171.513 67.0081 173.961 66.4927 175.61 65.4619C177.311 64.3796 178.162 62.6787 178.162 60.3594C178.162 58.0917 177.311 56.4166 175.61 55.3343C173.961 54.2004 171.513 53.6334 168.266 53.6334H152.726V44.5108H166.101C169.142 44.5108 171.461 43.9954 173.059 42.9646C174.708 41.8823 175.533 40.2587 175.533 38.094C175.533 35.9809 174.708 34.4089 173.059 33.3781C171.461 32.2958 169.142 31.7546 166.101 31.7546H153.654V67.0081Z" fill="black"/>
<path fill-rule="evenodd" clip-rule="evenodd" d="M466.375 76.4401H435.528V71.4922H469.892L486.799 48.635L470.646 26.5589L471.091 27.2707H435.528V22.3228L467.547 22.3228H474.118L490.326 44.3142L504.346 22.3228H510.531L493.526 48.4404L512 76.4401H505.351L490.086 52.7494L472.804 76.4401L466.375 76.4401ZM461.814 51.3915H435.528V46.521H461.814V51.3915Z" fill="black"/>
</g>
<defs>
<filter id="filter0_f_1_256" x="-24.3452" y="3.18466" width="61.3525" height="93.2949" filterUnits="userSpaceOnUse" color-interpolation-filters="sRGB">
<feFlood flood-opacity="0" result="BackgroundImageFix"/>
<feBlend mode="normal" in="SourceGraphic" in2="BackgroundImageFix" result="shape"/>
<feGaussianBlur stdDeviation="8" result="effect1_foregroundBlur_1_256"/>
</filter>
<filter id="filter1_f_1_256" x="2.99304" y="-28.9496" width="93.2949" height="61.3525" filterUnits="userSpaceOnUse" color-interpolation-filters="sRGB">
<feFlood flood-opacity="0" result="BackgroundImageFix"/>
<feBlend mode="normal" in="SourceGraphic" in2="BackgroundImageFix" result="shape"/>
<feGaussianBlur stdDeviation="8" result="effect1_foregroundBlur_1_256"/>
</filter>
<filter id="filter2_f_1_256" x="72.3453" y="3.18466" width="61.3525" height="93.2949" filterUnits="userSpaceOnUse" color-interpolation-filters="sRGB">
<feFlood flood-opacity="0" result="BackgroundImageFix"/>
<feBlend mode="normal" in="SourceGraphic" in2="BackgroundImageFix" result="shape"/>
<feGaussianBlur stdDeviation="8" result="effect1_foregroundBlur_1_256"/>
</filter>
<filter id="filter3_f_1_256" x="2.99304" y="67.7409" width="93.2949" height="61.3525" filterUnits="userSpaceOnUse" color-interpolation-filters="sRGB">
<feFlood flood-opacity="0" result="BackgroundImageFix"/>
<feBlend mode="normal" in="SourceGraphic" in2="BackgroundImageFix" result="shape"/>
<feGaussianBlur stdDeviation="8" result="effect1_foregroundBlur_1_256"/>
</filter>
<clipPath id="clip0_1_256">
<rect width="512" height="98" fill="white"/>
</clipPath>
</defs>
</svg>
