<svg width="380" height="75" viewBox="0 0 380 75" fill="none" xmlns="http://www.w3.org/2000/svg">
<path fill-rule="evenodd" clip-rule="evenodd" d="M70.305 2.78364H2.73927V71.4465H70.305V2.78364ZM0.00012207 1.52588e-05V74.2301H73.0441V1.52588e-05H0.00012207Z" fill="#C7955E"/>
<mask id="mask0_1_193" style="mask-type:alpha" maskUnits="userSpaceOnUse" x="0" y="0" width="74" height="75">
<path fill-rule="evenodd" clip-rule="evenodd" d="M69.1997 3.90686H3.84454V70.3232H69.1997V3.90686ZM0.00012207 1.52588e-05V74.2301H73.0441V1.52588e-05H0.00012207Z" fill="#EED16C"/>
</mask>
<g mask="url(#mask0_1_193)">
<g filter="url(#filter0_f_1_193)">
<ellipse cx="4.69904" cy="37.5853" rx="10.8925" ry="23.1155" fill="#FFF2AD"/>
</g>
<g filter="url(#filter1_f_1_193)">
<ellipse cx="36.8428" cy="1.30226" rx="11.0694" ry="22.7462" transform="rotate(90 36.8428 1.30226)" fill="#FFF2AD"/>
</g>
<g filter="url(#filter2_f_1_193)">
<ellipse cx="76.4615" cy="37.5853" rx="10.8925" ry="23.1155" fill="#FFF2AD"/>
</g>
<g filter="url(#filter3_f_1_193)">
<ellipse cx="36.8428" cy="74.2301" rx="11.0694" ry="22.7462" transform="rotate(90 36.8428 74.2301)" fill="#FFF2AD"/>
</g>
</g>
<rect x="22.8146" y="43.1402" width="8.50915" height="8.64732" fill="#00F0FF"/>
<rect x="22.8146" y="23.1848" width="8.50915" height="8.64732" fill="#00F0FF"/>
<rect x="33.2872" y="33.1625" width="7.8546" height="8.64732" fill="#00F0FF"/>
<rect x="43.1058" y="43.1402" width="8.50915" height="8.64732" fill="#00F0FF"/>
<rect x="43.1058" y="23.1848" width="8.50915" height="8.64732" fill="#00F0FF"/>
<rect x="53.5783" y="13.2072" width="8.50915" height="8.64732" fill="#00F0FF"/>
<rect x="53.5783" y="53.1179" width="8.50915" height="8.64732" fill="#00F0FF"/>
<rect x="11.6873" y="13.2072" width="8.50915" height="8.64732" fill="#00F0FF"/>
<rect x="11.6872" y="53.1179" width="8.50915" height="8.64732" fill="#00F0FF"/>
<path d="M281.448 48.3244L280.932 37.4203L300.154 16.8367H310.482L293.153 35.7876L287.989 41.3854L281.448 48.3244ZM273.128 57.6541V16.8367H282.366V57.6541H273.128ZM300.613 57.6541L286.325 39.8694L292.408 33.1637L311.457 57.6541H300.613Z" fill="white"/>
<path d="M250.268 58.3538C247.17 58.3538 244.282 57.8484 241.604 56.8377C238.965 55.7881 236.67 54.3109 234.719 52.4061C232.768 50.5013 231.238 48.2661 230.128 45.7004C229.057 43.1347 228.522 40.3164 228.522 37.2454C228.522 34.1744 229.057 31.356 230.128 28.7904C231.238 26.2247 232.768 23.9895 234.719 22.0847C236.708 20.1798 239.022 18.7221 241.661 17.7114C244.301 16.6618 247.189 16.137 250.326 16.137C253.807 16.137 256.943 16.759 259.736 18.0029C262.566 19.208 264.938 20.9962 266.851 23.3675L260.883 28.9653C259.506 27.3715 257.976 26.1858 256.293 25.4083C254.61 24.592 252.774 24.1838 250.785 24.1838C248.91 24.1838 247.189 24.4948 245.621 25.1168C244.052 25.7388 242.694 26.6329 241.547 27.7991C240.399 28.9653 239.5 30.3453 238.85 31.9391C238.238 33.5329 237.932 35.3017 237.932 37.2454C237.932 39.1891 238.238 40.9578 238.85 42.5516C239.5 44.1455 240.399 45.5255 241.547 46.6917C242.694 47.8579 244.052 48.752 245.621 49.374C247.189 49.9959 248.91 50.3069 250.785 50.3069C252.774 50.3069 254.61 49.9182 256.293 49.1407C257.976 48.3244 259.506 47.0999 260.883 45.4672L266.851 51.065C264.938 53.4363 262.566 55.2439 259.736 56.4879C256.943 57.7318 253.788 58.3538 250.268 58.3538Z" fill="white"/>
<path d="M202.142 58.3538C198.967 58.3538 196.021 57.829 193.306 56.7794C190.628 55.7298 188.294 54.2526 186.305 52.3478C184.354 50.443 182.824 48.2078 181.715 45.6421C180.644 43.0764 180.108 40.2775 180.108 37.2454C180.108 34.2132 180.644 31.4143 181.715 28.8487C182.824 26.283 184.374 24.0478 186.363 22.143C188.352 20.2381 190.685 18.7609 193.363 17.7114C196.041 16.6618 198.948 16.137 202.084 16.137C205.259 16.137 208.167 16.6618 210.806 17.7114C213.484 18.7609 215.798 20.2381 217.749 22.143C219.738 24.0478 221.287 26.283 222.397 28.8487C223.506 31.3755 224.061 34.1744 224.061 37.2454C224.061 40.2775 223.506 43.0959 222.397 45.7004C221.287 48.2661 219.738 50.5013 217.749 52.4061C215.798 54.2721 213.484 55.7298 210.806 56.7794C208.167 57.829 205.279 58.3538 202.142 58.3538ZM202.084 50.3069C203.882 50.3069 205.527 49.9959 207.019 49.374C208.549 48.752 209.888 47.8579 211.036 46.6917C212.183 45.5255 213.063 44.1455 213.675 42.5516C214.325 40.9578 214.65 39.1891 214.65 37.2454C214.65 35.3017 214.325 33.5329 213.675 31.9391C213.063 30.3453 212.183 28.9653 211.036 27.7991C209.926 26.6329 208.607 25.7388 207.076 25.1168C205.546 24.4948 203.882 24.1838 202.084 24.1838C200.287 24.1838 198.623 24.4948 197.093 25.1168C195.601 25.7388 194.281 26.6329 193.133 27.7991C191.986 28.9653 191.087 30.3453 190.437 31.9391C189.825 33.5329 189.519 35.3017 189.519 37.2454C189.519 39.1502 189.825 40.9189 190.437 42.5516C191.087 44.1455 191.967 45.5255 193.076 46.6917C194.224 47.8579 195.562 48.752 197.093 49.374C198.623 49.9959 200.287 50.3069 202.084 50.3069Z" fill="white"/>
<path d="M148.677 57.6541V16.8367H157.972V49.9571H178.112V57.6541H148.677Z" fill="white"/>
<path d="M104.802 57.6541V16.8367H124.426C129.475 16.8367 133.262 17.8085 135.787 19.7522C138.35 21.6959 139.631 24.2616 139.631 27.4492C139.631 29.5873 139.115 31.4532 138.082 33.047C137.049 34.602 135.634 35.8071 133.836 36.6623C132.038 37.5175 129.972 37.9451 127.639 37.9451L128.729 35.5544C131.254 35.5544 133.492 35.982 135.442 36.8372C137.393 37.6536 138.904 38.8781 139.975 40.5108C141.085 42.1435 141.639 44.1455 141.639 46.5168C141.639 50.0154 140.281 52.756 137.565 54.7385C134.85 56.6822 130.852 57.6541 125.573 57.6541H104.802ZM114.04 50.5402H124.885C127.295 50.5402 129.112 50.1515 130.336 49.374C131.598 48.5576 132.229 47.2748 132.229 45.5255C132.229 43.815 131.598 42.5516 130.336 41.7353C129.112 40.8801 127.295 40.4525 124.885 40.4525H113.352V33.5718H123.278C125.535 33.5718 127.256 33.1831 128.442 32.4056C129.666 31.5893 130.278 30.3647 130.278 28.7321C130.278 27.1382 129.666 25.9526 128.442 25.1751C127.256 24.3588 125.535 23.9506 123.278 23.9506H114.04V50.5402Z" fill="white"/>
<path fill-rule="evenodd" clip-rule="evenodd" d="M346.032 57.6541H323.244V53.9222H348.748L361.297 36.6824L349.307 20.0309L349.638 20.5686H323.244V16.8367H347.007H347.343H351.885L363.914 33.4235L374.32 16.8367H378.91L366.289 36.5356L380 57.6541H375.066L363.736 39.7856L350.909 57.6541H346.138H346.032ZM342.753 38.7615H323.244V35.0879H342.753V38.7615Z" fill="#00C4F4"/>
<defs>
<filter id="filter0_f_1_193" x="-22.1935" y="-1.53021" width="53.785" height="78.231" filterUnits="userSpaceOnUse" color-interpolation-filters="sRGB">
<feFlood flood-opacity="0" result="BackgroundImageFix"/>
<feBlend mode="normal" in="SourceGraphic" in2="BackgroundImageFix" result="shape"/>
<feGaussianBlur stdDeviation="8" result="effect1_foregroundBlur_1_193"/>
</filter>
<filter id="filter1_f_1_193" x="-1.90338" y="-25.7671" width="77.4923" height="54.1388" filterUnits="userSpaceOnUse" color-interpolation-filters="sRGB">
<feFlood flood-opacity="0" result="BackgroundImageFix"/>
<feBlend mode="normal" in="SourceGraphic" in2="BackgroundImageFix" result="shape"/>
<feGaussianBlur stdDeviation="8" result="effect1_foregroundBlur_1_193"/>
</filter>
<filter id="filter2_f_1_193" x="49.569" y="-1.5302" width="53.785" height="78.231" filterUnits="userSpaceOnUse" color-interpolation-filters="sRGB">
<feFlood flood-opacity="0" result="BackgroundImageFix"/>
<feBlend mode="normal" in="SourceGraphic" in2="BackgroundImageFix" result="shape"/>
<feGaussianBlur stdDeviation="8" result="effect1_foregroundBlur_1_193"/>
</filter>
<filter id="filter3_f_1_193" x="-1.90338" y="47.1607" width="77.4923" height="54.1388" filterUnits="userSpaceOnUse" color-interpolation-filters="sRGB">
<feFlood flood-opacity="0" result="BackgroundImageFix"/>
<feBlend mode="normal" in="SourceGraphic" in2="BackgroundImageFix" result="shape"/>
<feGaussianBlur stdDeviation="8" result="effect1_foregroundBlur_1_193"/>
</filter>
</defs>
</svg>
