<svg width="125" height="36" viewBox="0 0 125 36" fill="none" xmlns="http://www.w3.org/2000/svg">
<path d="M21.0184 18.954C21.0332 17.8042 21.3386 16.6767 21.9063 15.6766C22.4739 14.6765 23.2853 13.8362 24.2649 13.2339C23.6426 12.3451 22.8216 11.6137 21.8671 11.0977C20.9126 10.5817 19.851 10.2953 18.7665 10.2614C16.4531 10.0186 14.2103 11.6457 13.0315 11.6457C11.8298 11.6457 10.0147 10.2855 8.06018 10.3257C6.79594 10.3666 5.56384 10.7342 4.48393 11.3928C3.40402 12.0514 2.51312 12.9785 1.89804 14.0838C-0.766344 18.6968 1.22105 25.4763 3.7733 29.205C5.05025 31.0309 6.54264 33.0705 8.4954 32.9981C10.4063 32.9189 11.12 31.7796 13.4266 31.7796C15.7118 31.7796 16.3814 32.9981 18.3737 32.9522C20.4242 32.9189 21.7161 31.1182 22.9483 29.275C23.8657 27.974 24.5717 26.5361 25.0401 25.0146C23.8488 24.5107 22.8322 23.6674 22.1171 22.5896C21.4019 21.5119 21.0198 20.2475 21.0184 18.954Z" fill="#333333"/>
<path d="M17.2558 7.80887C18.3738 6.46675 18.9246 4.74168 18.7913 3C17.0832 3.1794 15.5054 3.99574 14.3723 5.28637C13.8183 5.91687 13.394 6.65039 13.1236 7.44498C12.8533 8.23957 12.7422 9.07965 12.7967 9.9172C13.651 9.926 14.4962 9.74083 15.2686 9.37563C16.041 9.01043 16.7205 8.47473 17.2558 7.80887Z" fill="#333333"/>
<path d="M38.06 4.05C38.8 4.05 39.4467 4.19333 40 4.48C40.56 4.76 40.99 5.16667 41.29 5.7C41.5967 6.22667 41.75 6.84333 41.75 7.55C41.75 8.25667 41.5967 8.87 41.29 9.39C40.99 9.91 40.56 10.31 40 10.59C39.4467 10.8633 38.8 11 38.06 11H35.79V4.05H38.06ZM38.06 10.07C38.8734 10.07 39.4967 9.85 39.93 9.41C40.3634 8.97 40.58 8.35 40.58 7.55C40.58 6.74333 40.3634 6.11333 39.93 5.66C39.4967 5.20667 38.8734 4.98 38.06 4.98H36.93V10.07H38.06ZM45.2699 11.09C44.7499 11.09 44.2799 10.9733 43.8599 10.74C43.4399 10.5 43.1099 10.1667 42.8699 9.74C42.6299 9.30667 42.5099 8.80667 42.5099 8.24C42.5099 7.68 42.6332 7.18333 42.8799 6.75C43.1265 6.31667 43.4632 5.98333 43.8899 5.75C44.3165 5.51667 44.7932 5.4 45.3199 5.4C45.8465 5.4 46.3232 5.51667 46.7499 5.75C47.1765 5.98333 47.5132 6.31667 47.7599 6.75C48.0065 7.18333 48.1299 7.68 48.1299 8.24C48.1299 8.8 48.0032 9.29667 47.7499 9.73C47.4965 10.1633 47.1499 10.5 46.7099 10.74C46.2765 10.9733 45.7965 11.09 45.2699 11.09ZM45.2699 10.1C45.5632 10.1 45.8365 10.03 46.0899 9.89C46.3499 9.75 46.5599 9.54 46.7199 9.26C46.8799 8.98 46.9599 8.64 46.9599 8.24C46.9599 7.84 46.8832 7.50333 46.7299 7.23C46.5765 6.95 46.3732 6.74 46.1199 6.6C45.8665 6.46 45.5932 6.39 45.2999 6.39C45.0065 6.39 44.7332 6.46 44.4799 6.6C44.2332 6.74 44.0365 6.95 43.8899 7.23C43.7432 7.50333 43.6699 7.84 43.6699 8.24C43.6699 8.83333 43.8199 9.29333 44.1199 9.62C44.4265 9.94 44.8099 10.1 45.2699 10.1ZM56.6568 5.49L54.9468 11H53.7468L52.6368 6.93L51.5268 11H50.3268L48.6068 5.49H49.7668L50.9168 9.92L52.0868 5.49H53.2768L54.3968 9.9L55.5368 5.49H56.6568ZM60.2888 5.4C60.7221 5.4 61.1088 5.49 61.4488 5.67C61.7955 5.85 62.0655 6.11667 62.2588 6.47C62.4521 6.82333 62.5488 7.25 62.5488 7.75V11H61.4188V7.92C61.4188 7.42667 61.2955 7.05 61.0488 6.79C60.8021 6.52333 60.4655 6.39 60.0388 6.39C59.6121 6.39 59.2721 6.52333 59.0188 6.79C58.7721 7.05 58.6488 7.42667 58.6488 7.92V11H57.5088V5.49H58.6488V6.12C58.8355 5.89333 59.0721 5.71667 59.3588 5.59C59.6521 5.46333 59.9621 5.4 60.2888 5.4ZM65.1429 3.6V11H64.0029V3.6H65.1429ZM69.0296 11.09C68.5096 11.09 68.0396 10.9733 67.6196 10.74C67.1996 10.5 66.8696 10.1667 66.6296 9.74C66.3896 9.30667 66.2696 8.80667 66.2696 8.24C66.2696 7.68 66.393 7.18333 66.6396 6.75C66.8863 6.31667 67.223 5.98333 67.6496 5.75C68.0763 5.51667 68.553 5.4 69.0796 5.4C69.6063 5.4 70.083 5.51667 70.5096 5.75C70.9363 5.98333 71.273 6.31667 71.5196 6.75C71.7663 7.18333 71.8896 7.68 71.8896 8.24C71.8896 8.8 71.763 9.29667 71.5096 9.73C71.2563 10.1633 70.9096 10.5 70.4696 10.74C70.0363 10.9733 69.5563 11.09 69.0296 11.09ZM69.0296 10.1C69.323 10.1 69.5963 10.03 69.8496 9.89C70.1096 9.75 70.3196 9.54 70.4796 9.26C70.6396 8.98 70.7196 8.64 70.7196 8.24C70.7196 7.84 70.643 7.50333 70.4896 7.23C70.3363 6.95 70.133 6.74 69.8796 6.6C69.6263 6.46 69.353 6.39 69.0596 6.39C68.7663 6.39 68.493 6.46 68.2396 6.6C67.993 6.74 67.7963 6.95 67.6496 7.23C67.503 7.50333 67.4296 7.84 67.4296 8.24C67.4296 8.83333 67.5796 9.29333 67.8796 9.62C68.1863 9.94 68.5696 10.1 69.0296 10.1ZM72.6366 8.22C72.6366 7.66667 72.7499 7.17667 72.9766 6.75C73.2099 6.32333 73.5233 5.99333 73.9166 5.76C74.3166 5.52 74.7566 5.4 75.2366 5.4C75.6699 5.4 76.0466 5.48667 76.3666 5.66C76.6933 5.82667 76.9533 6.03667 77.1466 6.29V5.49H78.2966V11H77.1466V10.18C76.9533 10.44 76.6899 10.6567 76.3566 10.83C76.0233 11.0033 75.6433 11.09 75.2166 11.09C74.7433 11.09 74.3099 10.97 73.9166 10.73C73.5233 10.4833 73.2099 10.1433 72.9766 9.71C72.7499 9.27 72.6366 8.77333 72.6366 8.22ZM77.1466 8.24C77.1466 7.86 77.0666 7.53 76.9066 7.25C76.7533 6.97 76.5499 6.75667 76.2966 6.61C76.0433 6.46333 75.7699 6.39 75.4766 6.39C75.1833 6.39 74.9099 6.46333 74.6566 6.61C74.4033 6.75 74.1966 6.96 74.0366 7.24C73.8833 7.51333 73.8066 7.84 73.8066 8.22C73.8066 8.6 73.8833 8.93333 74.0366 9.22C74.1966 9.50667 74.4033 9.72667 74.6566 9.88C74.9166 10.0267 75.1899 10.1 75.4766 10.1C75.7699 10.1 76.0433 10.0267 76.2966 9.88C76.5499 9.73333 76.7533 9.52 76.9066 9.24C77.0666 8.95333 77.1466 8.62 77.1466 8.24ZM79.4139 8.22C79.4139 7.66667 79.5273 7.17667 79.7539 6.75C79.9873 6.32333 80.3006 5.99333 80.6939 5.76C81.0939 5.52 81.5373 5.4 82.0239 5.4C82.3839 5.4 82.7373 5.48 83.0839 5.64C83.4373 5.79333 83.7173 6 83.9239 6.26V3.6H85.0739V11H83.9239V10.17C83.7373 10.4367 83.4773 10.6567 83.1439 10.83C82.8173 11.0033 82.4406 11.09 82.0139 11.09C81.5339 11.09 81.0939 10.97 80.6939 10.73C80.3006 10.4833 79.9873 10.1433 79.7539 9.71C79.5273 9.27 79.4139 8.77333 79.4139 8.22ZM83.9239 8.24C83.9239 7.86 83.8439 7.53 83.6839 7.25C83.5306 6.97 83.3273 6.75667 83.0739 6.61C82.8206 6.46333 82.5473 6.39 82.2539 6.39C81.9606 6.39 81.6873 6.46333 81.4339 6.61C81.1806 6.75 80.9739 6.96 80.8139 7.24C80.6606 7.51333 80.5839 7.84 80.5839 8.22C80.5839 8.6 80.6606 8.93333 80.8139 9.22C80.9739 9.50667 81.1806 9.72667 81.4339 9.88C81.6939 10.0267 81.9673 10.1 82.2539 10.1C82.5473 10.1 82.8206 10.0267 83.0739 9.88C83.3273 9.73333 83.5306 9.52 83.6839 9.24C83.8439 8.95333 83.9239 8.62 83.9239 8.24ZM92.3389 11.07C91.6923 11.07 91.0956 10.92 90.5489 10.62C90.0089 10.3133 89.5789 9.89 89.2589 9.35C88.9456 8.80333 88.7889 8.19 88.7889 7.51C88.7889 6.83 88.9456 6.22 89.2589 5.68C89.5789 5.14 90.0089 4.72 90.5489 4.42C91.0956 4.11333 91.6923 3.96 92.3389 3.96C92.9923 3.96 93.5889 4.11333 94.1289 4.42C94.6756 4.72 95.1056 5.14 95.4189 5.68C95.7323 6.22 95.8889 6.83 95.8889 7.51C95.8889 8.19 95.7323 8.80333 95.4189 9.35C95.1056 9.89 94.6756 10.3133 94.1289 10.62C93.5889 10.92 92.9923 11.07 92.3389 11.07ZM92.3389 10.08C92.7989 10.08 93.2089 9.97667 93.5689 9.77C93.9289 9.55667 94.2089 9.25667 94.4089 8.87C94.6156 8.47667 94.7189 8.02333 94.7189 7.51C94.7189 6.99667 94.6156 6.54667 94.4089 6.16C94.2089 5.77333 93.9289 5.47667 93.5689 5.27C93.2089 5.06333 92.7989 4.96 92.3389 4.96C91.8789 4.96 91.4689 5.06333 91.1089 5.27C90.7489 5.47667 90.4656 5.77333 90.2589 6.16C90.0589 6.54667 89.9589 6.99667 89.9589 7.51C89.9589 8.02333 90.0589 8.47667 90.2589 8.87C90.4656 9.25667 90.7489 9.55667 91.1089 9.77C91.4689 9.97667 91.8789 10.08 92.3389 10.08ZM99.7907 5.4C100.224 5.4 100.611 5.49 100.951 5.67C101.297 5.85 101.567 6.11667 101.761 6.47C101.954 6.82333 102.051 7.25 102.051 7.75V11H100.921V7.92C100.921 7.42667 100.797 7.05 100.551 6.79C100.304 6.52333 99.9674 6.39 99.5407 6.39C99.1141 6.39 98.7741 6.52333 98.5207 6.79C98.2741 7.05 98.1507 7.42667 98.1507 7.92V11H97.0107V5.49H98.1507V6.12C98.3374 5.89333 98.5741 5.71667 98.8607 5.59C99.1541 5.46333 99.4641 5.4 99.7907 5.4ZM110.593 4.05V4.98H108.743V11H107.603V4.98H105.743V4.05H110.593ZM114.597 5.4C115.017 5.4 115.39 5.49 115.717 5.67C116.05 5.85 116.31 6.11667 116.497 6.47C116.69 6.82333 116.787 7.25 116.787 7.75V11H115.657V7.92C115.657 7.42667 115.534 7.05 115.287 6.79C115.04 6.52333 114.704 6.39 114.277 6.39C113.85 6.39 113.51 6.52333 113.257 6.79C113.01 7.05 112.887 7.42667 112.887 7.92V11H111.747V3.6H112.887V6.13C113.08 5.89667 113.324 5.71667 113.617 5.59C113.917 5.46333 114.244 5.4 114.597 5.4ZM123.291 8.11C123.291 8.31667 123.278 8.50333 123.251 8.67H119.041C119.075 9.11 119.238 9.46333 119.531 9.73C119.825 9.99667 120.185 10.13 120.611 10.13C121.225 10.13 121.658 9.87333 121.911 9.36H123.141C122.975 9.86667 122.671 10.2833 122.231 10.61C121.798 10.93 121.258 11.09 120.611 11.09C120.085 11.09 119.611 10.9733 119.191 10.74C118.778 10.5 118.451 10.1667 118.211 9.74C117.978 9.30667 117.861 8.80667 117.861 8.24C117.861 7.67333 117.975 7.17667 118.201 6.75C118.435 6.31667 118.758 5.98333 119.171 5.75C119.591 5.51667 120.071 5.4 120.611 5.4C121.131 5.4 121.595 5.51333 122.001 5.74C122.408 5.96667 122.725 6.28667 122.951 6.7C123.178 7.10667 123.291 7.57667 123.291 8.11ZM122.101 7.75C122.095 7.33 121.945 6.99333 121.651 6.74C121.358 6.48667 120.995 6.36 120.561 6.36C120.168 6.36 119.831 6.48667 119.551 6.74C119.271 6.98667 119.105 7.32333 119.051 7.75H122.101Z" fill="#6D6D6D"/>
<path d="M44.016 22.192C44.016 22.7573 43.8827 23.2907 43.616 23.792C43.3494 24.2933 42.9227 24.704 42.336 25.024C41.7494 25.3333 40.9974 25.488 40.08 25.488H38.064V30H36.24V18.88H40.08C40.9334 18.88 41.6534 19.0293 42.24 19.328C42.8374 19.616 43.28 20.0107 43.568 20.512C43.8667 21.0133 44.016 21.5733 44.016 22.192ZM40.08 24C40.7734 24 41.2907 23.8453 41.632 23.536C41.9734 23.216 42.144 22.768 42.144 22.192C42.144 20.976 41.456 20.368 40.08 20.368H38.064V24H40.08ZM47.5797 18.16V30H45.7557V18.16H47.5797ZM49.3664 25.552C49.3664 24.6667 49.5477 23.8827 49.9104 23.2C50.2837 22.5173 50.7851 21.9893 51.4144 21.616C52.0544 21.232 52.7584 21.04 53.5264 21.04C54.2197 21.04 54.8224 21.1787 55.3344 21.456C55.8571 21.7227 56.2731 22.0587 56.5824 22.464V21.184H58.4224V30H56.5824V28.688C56.2731 29.104 55.8517 29.4507 55.3184 29.728C54.7851 30.0053 54.1771 30.144 53.4944 30.144C52.7371 30.144 52.0437 29.952 51.4144 29.568C50.7851 29.1733 50.2837 28.6293 49.9104 27.936C49.5477 27.232 49.3664 26.4373 49.3664 25.552ZM56.5824 25.584C56.5824 24.976 56.4544 24.448 56.1984 24C55.9531 23.552 55.6277 23.2107 55.2224 22.976C54.8171 22.7413 54.3797 22.624 53.9104 22.624C53.4411 22.624 53.0037 22.7413 52.5984 22.976C52.1931 23.2 51.8624 23.536 51.6064 23.984C51.3611 24.4213 51.2384 24.944 51.2384 25.552C51.2384 26.16 51.3611 26.6933 51.6064 27.152C51.8624 27.6107 52.1931 27.9627 52.5984 28.208C53.0144 28.4427 53.4517 28.56 53.9104 28.56C54.3797 28.56 54.8171 28.4427 55.2224 28.208C55.6277 27.9733 55.9531 27.632 56.1984 27.184C56.4544 26.7253 56.5824 26.192 56.5824 25.584ZM68.7542 21.184L63.3462 34.144H61.4582L63.2502 29.856L59.7782 21.184H61.8102L64.2902 27.904L66.8662 21.184H68.7542ZM77.9509 30.112C77.2042 30.112 76.5322 29.984 75.9349 29.728C75.3376 29.4613 74.8682 29.088 74.5269 28.608C74.1856 28.128 74.0149 27.568 74.0149 26.928H75.9669C76.0096 27.408 76.1962 27.8027 76.5269 28.112C76.8682 28.4213 77.3429 28.576 77.9509 28.576C78.5802 28.576 79.0709 28.4267 79.4229 28.128C79.7749 27.8187 79.9509 27.424 79.9509 26.944C79.9509 26.5707 79.8389 26.2667 79.6149 26.032C79.4016 25.7973 79.1296 25.616 78.7989 25.488C78.4789 25.36 78.0309 25.2213 77.4549 25.072C76.7296 24.88 76.1376 24.688 75.6789 24.496C75.2309 24.2933 74.8469 23.984 74.5269 23.568C74.2069 23.152 74.0469 22.5973 74.0469 21.904C74.0469 21.264 74.2069 20.704 74.5269 20.224C74.8469 19.744 75.2949 19.376 75.8709 19.12C76.4469 18.864 77.1136 18.736 77.8709 18.736C78.9482 18.736 79.8282 19.008 80.5109 19.552C81.2042 20.0853 81.5882 20.8213 81.6629 21.76H79.6469C79.6149 21.3547 79.4229 21.008 79.0709 20.72C78.7189 20.432 78.2549 20.288 77.6789 20.288C77.1562 20.288 76.7296 20.4213 76.3989 20.688C76.0682 20.9547 75.9029 21.3387 75.9029 21.84C75.9029 22.1813 76.0042 22.464 76.2069 22.688C76.4202 22.9013 76.6869 23.072 77.0069 23.2C77.3269 23.328 77.7642 23.4667 78.3189 23.616C79.0549 23.8187 79.6522 24.0213 80.1109 24.224C80.5802 24.4267 80.9749 24.7413 81.2949 25.168C81.6256 25.584 81.7909 26.144 81.7909 26.848C81.7909 27.4133 81.6362 27.9467 81.3269 28.448C81.0282 28.9493 80.5856 29.3547 79.9989 29.664C79.4229 29.9627 78.7402 30.112 77.9509 30.112ZM86.0712 22.672V27.552C86.0712 27.8827 86.1458 28.1227 86.2952 28.272C86.4552 28.4107 86.7218 28.48 87.0952 28.48H88.2152V30H86.7752C85.9538 30 85.3245 29.808 84.8872 29.424C84.4498 29.04 84.2312 28.416 84.2312 27.552V22.672H83.1912V21.184H84.2312V18.992H86.0712V21.184H88.2152V22.672H86.0712ZM93.7203 30.144C92.8883 30.144 92.1363 29.9573 91.4643 29.584C90.7923 29.2 90.2643 28.6667 89.8803 27.984C89.4963 27.2907 89.3043 26.4907 89.3043 25.584C89.3043 24.688 89.5016 23.8933 89.8963 23.2C90.291 22.5067 90.8296 21.9733 91.5123 21.6C92.195 21.2267 92.9576 21.04 93.8003 21.04C94.643 21.04 95.4056 21.2267 96.0883 21.6C96.771 21.9733 97.3096 22.5067 97.7043 23.2C98.099 23.8933 98.2963 24.688 98.2963 25.584C98.2963 26.48 98.0936 27.2747 97.6883 27.968C97.283 28.6613 96.7283 29.2 96.0243 29.584C95.331 29.9573 94.563 30.144 93.7203 30.144ZM93.7203 28.56C94.1896 28.56 94.627 28.448 95.0323 28.224C95.4483 28 95.7843 27.664 96.0403 27.216C96.2963 26.768 96.4243 26.224 96.4243 25.584C96.4243 24.944 96.3016 24.4053 96.0563 23.968C95.811 23.52 95.4856 23.184 95.0803 22.96C94.675 22.736 94.2376 22.624 93.7683 22.624C93.299 22.624 92.8616 22.736 92.4563 22.96C92.0616 23.184 91.747 23.52 91.5123 23.968C91.2776 24.4053 91.1603 24.944 91.1603 25.584C91.1603 26.5333 91.4003 27.2693 91.8803 27.792C92.371 28.304 92.9843 28.56 93.7203 28.56ZM101.923 22.464C102.19 22.016 102.542 21.6693 102.979 21.424C103.427 21.168 103.955 21.04 104.563 21.04V22.928H104.099C103.385 22.928 102.841 23.1093 102.467 23.472C102.105 23.8347 101.923 24.464 101.923 25.36V30H100.099V21.184H101.923V22.464ZM114.32 25.376C114.32 25.7067 114.299 26.0053 114.256 26.272H107.52C107.573 26.976 107.835 27.5413 108.304 27.968C108.773 28.3947 109.349 28.608 110.032 28.608C111.013 28.608 111.707 28.1973 112.112 27.376H114.08C113.813 28.1867 113.328 28.8533 112.624 29.376C111.931 29.888 111.067 30.144 110.032 30.144C109.189 30.144 108.432 29.9573 107.76 29.584C107.099 29.2 106.576 28.6667 106.192 27.984C105.819 27.2907 105.632 26.4907 105.632 25.584C105.632 24.6773 105.813 23.8827 106.176 23.2C106.549 22.5067 107.067 21.9733 107.728 21.6C108.4 21.2267 109.168 21.04 110.032 21.04C110.864 21.04 111.605 21.2213 112.256 21.584C112.907 21.9467 113.413 22.4587 113.776 23.12C114.139 23.7707 114.32 24.5227 114.32 25.376ZM112.416 24.8C112.405 24.128 112.165 23.5893 111.696 23.184C111.227 22.7787 110.645 22.576 109.952 22.576C109.323 22.576 108.784 22.7787 108.336 23.184C107.888 23.5787 107.621 24.1173 107.536 24.8H112.416Z" fill="#333333"/>
</svg>
