<svg width="135" height="36" viewBox="0 0 135 36" fill="none" xmlns="http://www.w3.org/2000/svg">
<path d="M13.3686 17.2822L0.12207 31.3412C0.123314 31.3437 0.123314 31.3475 0.124558 31.3499C0.531399 32.8765 1.92486 34 3.57959 34C4.24148 34 4.86232 33.8208 5.39482 33.5073L5.43712 33.4824L20.3471 24.8791L13.3686 17.2822Z" fill="#EA4335"/>
<path d="M26.7693 14.8882L26.7569 14.8795L20.3196 11.1483L13.0674 17.6017L20.3457 24.8776L26.7482 21.1837C27.8704 20.5765 28.6331 19.3933 28.6331 18.0297C28.6331 16.6736 27.8816 15.4966 26.7693 14.8882Z" fill="#FBBC04"/>
<path d="M0.121928 4.65776C0.0423014 4.95138 0 5.25993 0 5.57844V30.4218C0 30.7403 0.0423014 31.0489 0.123172 31.3412L13.8239 17.6418L0.121928 4.65776Z" fill="#4285F4"/>
<path d="M13.4669 17.9999L20.3222 11.1458L5.42965 2.51134C4.88844 2.18661 4.25641 1.99999 3.58083 1.99999C1.9261 1.99999 0.530154 3.12595 0.123314 4.65378C0.123314 4.65502 0.12207 4.65627 0.12207 4.65751L13.4669 17.9999Z" fill="#34A853"/>
<path d="M44.4128 6.05C44.2328 5.70333 43.9828 5.44333 43.6628 5.27C43.3428 5.09 42.9728 5 42.5528 5C42.0928 5 41.6828 5.10333 41.3228 5.31C40.9628 5.51667 40.6795 5.81 40.4728 6.19C40.2728 6.57 40.1728 7.01 40.1728 7.51C40.1728 8.01 40.2728 8.45333 40.4728 8.84C40.6795 9.22 40.9628 9.51333 41.3228 9.72C41.6828 9.92667 42.0928 10.03 42.5528 10.03C43.1728 10.03 43.6761 9.85667 44.0628 9.51C44.4495 9.16333 44.6861 8.69333 44.7728 8.1H42.1628V7.19H45.9928V8.08C45.9195 8.62 45.7261 9.11667 45.4128 9.57C45.1061 10.0233 44.7028 10.3867 44.2028 10.66C43.7095 10.9267 43.1595 11.06 42.5528 11.06C41.8995 11.06 41.3028 10.91 40.7628 10.61C40.2228 10.3033 39.7928 9.88 39.4728 9.34C39.1595 8.8 39.0028 8.19 39.0028 7.51C39.0028 6.83 39.1595 6.22 39.4728 5.68C39.7928 5.14 40.2228 4.72 40.7628 4.42C41.3095 4.11333 41.9061 3.96 42.5528 3.96C43.2928 3.96 43.9495 4.14333 44.5228 4.51C45.1028 4.87 45.5228 5.38333 45.7828 6.05H44.4128ZM52.1672 8.11C52.1672 8.31667 52.1539 8.50333 52.1272 8.67H47.9172C47.9505 9.11 48.1139 9.46333 48.4072 9.73C48.7005 9.99667 49.0605 10.13 49.4872 10.13C50.1005 10.13 50.5339 9.87333 50.7872 9.36H52.0172C51.8505 9.86667 51.5472 10.2833 51.1072 10.61C50.6739 10.93 50.1339 11.09 49.4872 11.09C48.9605 11.09 48.4872 10.9733 48.0672 10.74C47.6539 10.5 47.3272 10.1667 47.0872 9.74C46.8539 9.30667 46.7372 8.80667 46.7372 8.24C46.7372 7.67333 46.8505 7.17667 47.0772 6.75C47.3105 6.31667 47.6339 5.98333 48.0472 5.75C48.4672 5.51667 48.9472 5.4 49.4872 5.4C50.0072 5.4 50.4705 5.51333 50.8772 5.74C51.2839 5.96667 51.6005 6.28667 51.8272 6.7C52.0539 7.10667 52.1672 7.57667 52.1672 8.11ZM50.9772 7.75C50.9705 7.33 50.8205 6.99333 50.5272 6.74C50.2339 6.48667 49.8705 6.36 49.4372 6.36C49.0439 6.36 48.7072 6.48667 48.4272 6.74C48.1472 6.98667 47.9805 7.32333 47.9272 7.75H50.9772ZM54.6191 6.42V9.47C54.6191 9.67667 54.6657 9.82667 54.7591 9.92C54.8591 10.0067 55.0257 10.05 55.2591 10.05H55.9591V11H55.0591C54.5457 11 54.1524 10.88 53.8791 10.64C53.6057 10.4 53.4691 10.01 53.4691 9.47V6.42H52.8191V5.49H53.4691V4.12H54.6191V5.49H55.9591V6.42H54.6191ZM60.7474 4.05V11H59.6074V4.05H60.7474ZM63.5741 6.42V9.47C63.5741 9.67667 63.6208 9.82667 63.7141 9.92C63.8141 10.0067 63.9808 10.05 64.2141 10.05H64.9141V11H64.0141C63.5008 11 63.1075 10.88 62.8341 10.64C62.5608 10.4 62.4241 10.01 62.4241 9.47V6.42H61.7741V5.49H62.4241V4.12H63.5741V5.49H64.9141V6.42H63.5741ZM71.7325 11.07C71.0858 11.07 70.4892 10.92 69.9425 10.62C69.4025 10.3133 68.9725 9.89 68.6525 9.35C68.3392 8.80333 68.1825 8.19 68.1825 7.51C68.1825 6.83 68.3392 6.22 68.6525 5.68C68.9725 5.14 69.4025 4.72 69.9425 4.42C70.4892 4.11333 71.0858 3.96 71.7325 3.96C72.3858 3.96 72.9825 4.11333 73.5225 4.42C74.0692 4.72 74.4992 5.14 74.8125 5.68C75.1258 6.22 75.2825 6.83 75.2825 7.51C75.2825 8.19 75.1258 8.80333 74.8125 9.35C74.4992 9.89 74.0692 10.3133 73.5225 10.62C72.9825 10.92 72.3858 11.07 71.7325 11.07ZM71.7325 10.08C72.1925 10.08 72.6025 9.97667 72.9625 9.77C73.3225 9.55667 73.6025 9.25667 73.8025 8.87C74.0092 8.47667 74.1125 8.02333 74.1125 7.51C74.1125 6.99667 74.0092 6.54667 73.8025 6.16C73.6025 5.77333 73.3225 5.47667 72.9625 5.27C72.6025 5.06333 72.1925 4.96 71.7325 4.96C71.2725 4.96 70.8625 5.06333 70.5025 5.27C70.1425 5.47667 69.8592 5.77333 69.6525 6.16C69.4525 6.54667 69.3525 6.99667 69.3525 7.51C69.3525 8.02333 69.4525 8.47667 69.6525 8.87C69.8592 9.25667 70.1425 9.55667 70.5025 9.77C70.8625 9.97667 71.2725 10.08 71.7325 10.08ZM79.1843 5.4C79.6176 5.4 80.0043 5.49 80.3443 5.67C80.691 5.85 80.961 6.11667 81.1543 6.47C81.3476 6.82333 81.4443 7.25 81.4443 7.75V11H80.3143V7.92C80.3143 7.42667 80.191 7.05 79.9443 6.79C79.6976 6.52333 79.361 6.39 78.9343 6.39C78.5076 6.39 78.1676 6.52333 77.9143 6.79C77.6676 7.05 77.5443 7.42667 77.5443 7.92V11H76.4043V5.49H77.5443V6.12C77.731 5.89333 77.9676 5.71667 78.2543 5.59C78.5476 5.46333 78.8576 5.4 79.1843 5.4Z" fill="#6D6D6D"/>
<path d="M47.8808 22.08C47.5928 21.5253 47.1928 21.1093 46.6808 20.832C46.1688 20.544 45.5768 20.4 44.9048 20.4C44.1688 20.4 43.5128 20.5653 42.9368 20.896C42.3608 21.2267 41.9075 21.696 41.5768 22.304C41.2568 22.912 41.0968 23.616 41.0968 24.416C41.0968 25.216 41.2568 25.9253 41.5768 26.544C41.9075 27.152 42.3608 27.6213 42.9368 27.952C43.5128 28.2827 44.1688 28.448 44.9048 28.448C45.8968 28.448 46.7021 28.1707 47.3208 27.616C47.9395 27.0613 48.3181 26.3093 48.4568 25.36H44.2808V23.904H50.4088V25.328C50.2915 26.192 49.9821 26.9867 49.4808 27.712C48.9901 28.4373 48.3448 29.0187 47.5448 29.456C46.7555 29.8827 45.8755 30.096 44.9048 30.096C43.8595 30.096 42.9048 29.856 42.0408 29.376C41.1768 28.8853 40.4888 28.208 39.9768 27.344C39.4755 26.48 39.2248 25.504 39.2248 24.416C39.2248 23.328 39.4755 22.352 39.9768 21.488C40.4888 20.624 41.1768 19.952 42.0408 19.472C42.9155 18.9813 43.8701 18.736 44.9048 18.736C46.0888 18.736 47.1395 19.0293 48.0568 19.616C48.9848 20.192 49.6568 21.0133 50.0728 22.08H47.8808ZM56.0318 30.144C55.1998 30.144 54.4478 29.9573 53.7758 29.584C53.1038 29.2 52.5758 28.6667 52.1918 27.984C51.8078 27.2907 51.6158 26.4907 51.6158 25.584C51.6158 24.688 51.8131 23.8933 52.2078 23.2C52.6025 22.5067 53.1411 21.9733 53.8238 21.6C54.5065 21.2267 55.2691 21.04 56.1118 21.04C56.9545 21.04 57.7171 21.2267 58.3998 21.6C59.0825 21.9733 59.6211 22.5067 60.0158 23.2C60.4105 23.8933 60.6078 24.688 60.6078 25.584C60.6078 26.48 60.4051 27.2747 59.9998 27.968C59.5945 28.6613 59.0398 29.2 58.3358 29.584C57.6425 29.9573 56.8745 30.144 56.0318 30.144ZM56.0318 28.56C56.5011 28.56 56.9385 28.448 57.3438 28.224C57.7598 28 58.0958 27.664 58.3518 27.216C58.6078 26.768 58.7358 26.224 58.7358 25.584C58.7358 24.944 58.6131 24.4053 58.3678 23.968C58.1225 23.52 57.7971 23.184 57.3918 22.96C56.9865 22.736 56.5491 22.624 56.0798 22.624C55.6105 22.624 55.1731 22.736 54.7678 22.96C54.3731 23.184 54.0585 23.52 53.8238 23.968C53.5891 24.4053 53.4718 24.944 53.4718 25.584C53.4718 26.5333 53.7118 27.2693 54.1918 27.792C54.6825 28.304 55.2958 28.56 56.0318 28.56ZM66.2349 30.144C65.4029 30.144 64.6509 29.9573 63.9789 29.584C63.3069 29.2 62.7789 28.6667 62.3949 27.984C62.0109 27.2907 61.8189 26.4907 61.8189 25.584C61.8189 24.688 62.0163 23.8933 62.4109 23.2C62.8056 22.5067 63.3443 21.9733 64.0269 21.6C64.7096 21.2267 65.4723 21.04 66.3149 21.04C67.1576 21.04 67.9203 21.2267 68.6029 21.6C69.2856 21.9733 69.8243 22.5067 70.2189 23.2C70.6136 23.8933 70.8109 24.688 70.8109 25.584C70.8109 26.48 70.6083 27.2747 70.2029 27.968C69.7976 28.6613 69.2429 29.2 68.5389 29.584C67.8456 29.9573 67.0776 30.144 66.2349 30.144ZM66.2349 28.56C66.7043 28.56 67.1416 28.448 67.5469 28.224C67.9629 28 68.2989 27.664 68.5549 27.216C68.8109 26.768 68.9389 26.224 68.9389 25.584C68.9389 24.944 68.8163 24.4053 68.5709 23.968C68.3256 23.52 68.0003 23.184 67.5949 22.96C67.1896 22.736 66.7523 22.624 66.2829 22.624C65.8136 22.624 65.3763 22.736 64.9709 22.96C64.5763 23.184 64.2616 23.52 64.0269 23.968C63.7923 24.4053 63.6749 24.944 63.6749 25.584C63.6749 26.5333 63.9149 27.2693 64.3949 27.792C64.8856 28.304 65.4989 28.56 66.2349 28.56ZM76.1661 21.04C76.8487 21.04 77.4514 21.1787 77.9741 21.456C78.5074 21.7227 78.9234 22.0587 79.2221 22.464V21.184H81.0621V30.144C81.0621 30.9547 80.8914 31.6747 80.5501 32.304C80.2087 32.944 79.7127 33.4453 79.0621 33.808C78.4221 34.1707 77.6541 34.352 76.7581 34.352C75.5634 34.352 74.5714 34.0693 73.7821 33.504C72.9927 32.9493 72.5447 32.192 72.4381 31.232H74.2461C74.3847 31.6907 74.6781 32.0587 75.1261 32.336C75.5847 32.624 76.1287 32.768 76.7581 32.768C77.4941 32.768 78.0861 32.544 78.5341 32.096C78.9927 31.648 79.2221 30.9973 79.2221 30.144V28.672C78.9127 29.088 78.4914 29.44 77.9581 29.728C77.4354 30.0053 76.8381 30.144 76.1661 30.144C75.3981 30.144 74.6941 29.952 74.0541 29.568C73.4247 29.1733 72.9234 28.6293 72.5501 27.936C72.1874 27.232 72.0061 26.4373 72.0061 25.552C72.0061 24.6667 72.1874 23.8827 72.5501 23.2C72.9234 22.5173 73.4247 21.9893 74.0541 21.616C74.6941 21.232 75.3981 21.04 76.1661 21.04ZM79.2221 25.584C79.2221 24.976 79.0941 24.448 78.8381 24C78.5927 23.552 78.2674 23.2107 77.8621 22.976C77.4567 22.7413 77.0194 22.624 76.5501 22.624C76.0807 22.624 75.6434 22.7413 75.2381 22.976C74.8327 23.2 74.5021 23.536 74.2461 23.984C74.0007 24.4213 73.8781 24.944 73.8781 25.552C73.8781 26.16 74.0007 26.6933 74.2461 27.152C74.5021 27.6107 74.8327 27.9627 75.2381 28.208C75.6541 28.4427 76.0914 28.56 76.5501 28.56C77.0194 28.56 77.4567 28.4427 77.8621 28.208C78.2674 27.9733 78.5927 27.632 78.8381 27.184C79.0941 26.7253 79.2221 26.192 79.2221 25.584ZM85.2818 18.16V30H83.4578V18.16H85.2818ZM95.7566 25.376C95.7566 25.7067 95.7352 26.0053 95.6926 26.272H88.9566C89.0099 26.976 89.2712 27.5413 89.7406 27.968C90.2099 28.3947 90.7859 28.608 91.4686 28.608C92.4499 28.608 93.1432 28.1973 93.5486 27.376H95.5166C95.2499 28.1867 94.7646 28.8533 94.0606 29.376C93.3672 29.888 92.5032 30.144 91.4686 30.144C90.6259 30.144 89.8686 29.9573 89.1966 29.584C88.5352 29.2 88.0126 28.6667 87.6286 27.984C87.2552 27.2907 87.0686 26.4907 87.0686 25.584C87.0686 24.6773 87.2499 23.8827 87.6126 23.2C87.9859 22.5067 88.5032 21.9733 89.1646 21.6C89.8366 21.2267 90.6046 21.04 91.4686 21.04C92.3006 21.04 93.0419 21.2213 93.6926 21.584C94.3432 21.9467 94.8499 22.4587 95.2126 23.12C95.5752 23.7707 95.7566 24.5227 95.7566 25.376ZM93.8526 24.8C93.8419 24.128 93.6019 23.5893 93.1326 23.184C92.6632 22.7787 92.0819 22.576 91.3886 22.576C90.7592 22.576 90.2206 22.7787 89.7726 23.184C89.3246 23.5787 89.0579 24.1173 88.9726 24.8H93.8526ZM109.484 22.192C109.484 22.7573 109.35 23.2907 109.084 23.792C108.817 24.2933 108.39 24.704 107.804 25.024C107.217 25.3333 106.465 25.488 105.548 25.488H103.532V30H101.708V18.88H105.548C106.401 18.88 107.121 19.0293 107.708 19.328C108.305 19.616 108.748 20.0107 109.036 20.512C109.334 21.0133 109.484 21.5733 109.484 22.192ZM105.548 24C106.241 24 106.758 23.8453 107.1 23.536C107.441 23.216 107.612 22.768 107.612 22.192C107.612 20.976 106.924 20.368 105.548 20.368H103.532V24H105.548ZM113.047 18.16V30H111.223V18.16H113.047ZM114.834 25.552C114.834 24.6667 115.016 23.8827 115.378 23.2C115.752 22.5173 116.253 21.9893 116.882 21.616C117.522 21.232 118.226 21.04 118.994 21.04C119.688 21.04 120.29 21.1787 120.802 21.456C121.325 21.7227 121.741 22.0587 122.05 22.464V21.184H123.89V30H122.05V28.688C121.741 29.104 121.32 29.4507 120.786 29.728C120.253 30.0053 119.645 30.144 118.962 30.144C118.205 30.144 117.512 29.952 116.882 29.568C116.253 29.1733 115.752 28.6293 115.378 27.936C115.016 27.232 114.834 26.4373 114.834 25.552ZM122.05 25.584C122.05 24.976 121.922 24.448 121.666 24C121.421 23.552 121.096 23.2107 120.69 22.976C120.285 22.7413 119.848 22.624 119.378 22.624C118.909 22.624 118.472 22.7413 118.066 22.976C117.661 23.2 117.33 23.536 117.074 23.984C116.829 24.4213 116.706 24.944 116.706 25.552C116.706 26.16 116.829 26.6933 117.074 27.152C117.33 27.6107 117.661 27.9627 118.066 28.208C118.482 28.4427 118.92 28.56 119.378 28.56C119.848 28.56 120.285 28.4427 120.69 28.208C121.096 27.9733 121.421 27.632 121.666 27.184C121.922 26.7253 122.05 26.192 122.05 25.584ZM134.222 21.184L128.814 34.144H126.926L128.718 29.856L125.246 21.184H127.278L129.758 27.904L132.334 21.184H134.222Z" fill="#333333"/>
</svg>
